<?xml version="1.0" encoding="UTF-8" standalone="no"?>
<!-- Created with Inkscape (http://www.inkscape.org/) -->

<svg
   width="210mm"
   height="210mm"
   viewBox="0 0 210 210"
   version="1.1"
   id="svg1693"
   inkscape:version="1.2.2 (b0a8486541, 2022-12-01)"
   sodipodi:docname="adivinador1.svg"
   inkscape:export-filename="Exports/isologo_color.png"
   inkscape:export-xdpi="181.70467"
   inkscape:export-ydpi="181.70467"
   xmlns:inkscape="http://www.inkscape.org/namespaces/inkscape"
   xmlns:sodipodi="http://sodipodi.sourceforge.net/DTD/sodipodi-0.dtd"
   xmlns="http://www.w3.org/2000/svg"
   xmlns:svg="http://www.w3.org/2000/svg">
  <sodipodi:namedview
     id="namedview1695"
     pagecolor="#ffffff"
     bordercolor="#000000"
     borderopacity="0.25"
     inkscape:showpageshadow="2"
     inkscape:pageopacity="0.0"
     inkscape:pagecheckerboard="0"
     inkscape:deskcolor="#d1d1d1"
     inkscape:document-units="mm"
     showgrid="false"
     inkscape:zoom="0.70710678"
     inkscape:cx="627.20372"
     inkscape:cy="422.84986"
     inkscape:window-width="1920"
     inkscape:window-height="1022"
     inkscape:window-x="0"
     inkscape:window-y="29"
     inkscape:window-maximized="1"
     inkscape:current-layer="layer1" />
  <defs
     id="defs1690">
    <rect
       x="991.50561"
       y="-40.547485"
       width="422.19005"
       height="88.733161"
       id="rect5144" />
    <rect
       x="1104.6147"
       y="869.06841"
       width="941.59998"
       height="198.45877"
       id="rect4560" />
    <rect
       x="1056.2516"
       y="-74.229963"
       width="1238.2972"
       height="928.2752"
       id="rect4426" />
  </defs>
  <g
     inkscape:label="Layer 1"
     inkscape:groupmode="layer"
     id="layer1">
    <rect
       style="fill:#6f1d1b;fill-opacity:1;stroke:#000000;stroke-width:0.248246;stroke-opacity:1"
       id="rect7909"
       width="209.43266"
       height="210.69138"
       x="0.36342201"
       y="0.040020999" />
    <g
       id="g10150"
       transform="matrix(0.84191181,0,0,0.84191181,17.140792,4.0968725)">
      <path
         inkscape:connector-curvature="0"
         id="path4769-3-3-0-4-6"
         d="m 127.57718,137.48317 c 5.10213,-0.93758 9.52368,-2.22564 9.06905,-3.8382 -1.0352,-3.67151 -17.3809,-4.69042 -17.3809,-4.69042 0,0 -6.64937,-0.1419 -14.73141,-0.0263 -8.126643,0.5182 -17.930598,-0.0437 -25.767522,2.05649 -1.986881,0.56442 -3.02579,1.27632 -2.631637,2.17272 2.273399,5.17052 31.112739,3.69939 31.112739,3.69939 0,0 18.53496,-0.61845 19.61872,-14.285 0.76785,-9.68256 -7.79236,-15.54925 -10.29171,-17.48655 v 0"
         style="fill:none;fill-opacity:1;stroke:#bb9457;stroke-width:3.97903;stroke-linecap:round;stroke-linejoin:miter;stroke-miterlimit:4;stroke-dasharray:none;stroke-dashoffset:0;stroke-opacity:1;paint-order:normal"
         sodipodi:nodetypes="cscccscscc" />
      <path
         inkscape:connector-curvature="0"
         sodipodi:nodetypes="cccccccscccc"
         id="path4771-6-6-6-7-1"
         d="m 116.65904,105.15648 c 0,0 -9.15152,-6.56943 -9.07223,-2.85941 0.60745,3.47395 5.97123,1.89644 9.68753,-0.91375 9.43328,-9.192842 -2.6909,-10.201587 -8.73159,-7.316154 -1.50968,0.770494 -3.16954,1.73606 -4.87988,2.875404 -7.611824,5.20445 -8.745565,10.78043 -5.809958,14.21103 6.030358,5.16157 15.420478,2.3523 21.154308,0.10819 7.83524,-3.11878 17.50404,-9.54421 26.4634,-22.992405 11.67066,-17.51795 5.16806,-36.481594 -13.30707,-43.858573 -13.30568,-4.888251 -26.3671,-3.330965 -38.029038,2.01276 C 76.01661,54.825281 58.70931,72.836369 57.41392,91.526682 57.091976,105.74424 64.702761,117.78352 77.131026,118.53887"
         style="fill:none;fill-opacity:1;stroke:#bb9457;stroke-width:3.71765;stroke-linecap:round;stroke-miterlimit:4;stroke-dasharray:none;stroke-opacity:1" />
      <path
         inkscape:connector-curvature="0"
         sodipodi:nodetypes="ccccccccc"
         id="path4806-7-0-2-6-2"
         d="m 96.661659,132.70109 -0.331101,-8.20432 -22.517722,-0.0631 c -5.38081,-0.29825 -4.532248,1.75541 -4.495519,6.82984 l 0.131177,18.13979 c -0.616677,5.62535 1.954839,4.66616 5.913656,4.96915 11.048106,0.84009 35.64652,2.26037 56.23978,0.23825 4.49285,-0.21242 4.79716,-0.31402 4.86262,-4.80308 l 0.23387,-16.02867"
         style="fill:none;fill-opacity:1;stroke:#bb9457;stroke-width:3.48023;stroke-linecap:round;stroke-linejoin:miter;stroke-miterlimit:4;stroke-dasharray:none;stroke-dashoffset:0;stroke-opacity:1;paint-order:normal" />
      <path
         inkscape:connector-curvature="0"
         id="path234-5-6-6-5-9"
         d="m 88.856473,107.07276 c 0,0 -16.586134,-1.56122 -7.903217,-18.896895 8.682971,-17.335672 27.672154,-21.987821 27.672154,-21.987821 0,0 17.94191,-6.372221 25.53945,2.838745 3.85623,4.6751 3.57496,10.621756 -6.38032,22.973485"
         style="fill:none;stroke:#bb9457;stroke-width:3.71765;stroke-linecap:round;stroke-miterlimit:4;stroke-dasharray:none;stroke-opacity:1"
         sodipodi:nodetypes="cscsc" />
    </g>
    <text
       xml:space="preserve"
       transform="scale(0.26458333)"
       id="text4424"
       style="fill:#000000;stroke:#000000;stroke-opacity:1;white-space:pre;shape-inside:url(#rect4426)" />
    <text
       xml:space="preserve"
       transform="scale(0.26458333)"
       id="text4558"
       style="fill:#ffff00;stroke:#ffffff;stroke-opacity:1;white-space:pre;shape-inside:url(#rect4560)" />
    <text
       xml:space="preserve"
       transform="scale(0.26458333)"
       id="text5142"
       style="fill:#ffffff;stroke:#ffffff;stroke-opacity:1;fill-opacity:1;white-space:pre;shape-inside:url(#rect5144)" />
    <text
       id="text3338-3-2-1-6-3"
       y="178.35774"
       x="12.032884"
       style="font-style:normal;font-weight:normal;font-size:13.854px;line-height:0%;font-family:sans-serif;letter-spacing:0px;word-spacing:0px;fill:#bb9457;fill-opacity:1;stroke:none;stroke-width:0.23135;stroke-linecap:butt;stroke-linejoin:miter;stroke-miterlimit:4;stroke-dasharray:none;stroke-opacity:1"
       xml:space="preserve"><tspan
         style="font-style:normal;font-variant:normal;font-weight:normal;font-stretch:normal;font-size:29.3535px;line-height:125%;font-family:Rockwell;-inkscape-font-specification:Rockwell;letter-spacing:0.012861px;word-spacing:0.012954px;fill:#bb9457;fill-opacity:1;stroke-width:0.23135;stroke-miterlimit:4;stroke-dasharray:none"
         y="178.35774"
         x="12.032884"
         sodipodi:role="line"
         id="tspan4557-8-9-1">El Adivinador</tspan></text>
    <text
       id="text3338-3-2-1-6-3-3"
       y="119.34129"
       x="233.33366"
       style="font-style:normal;font-weight:normal;font-size:13.854px;line-height:0%;font-family:sans-serif;letter-spacing:0px;word-spacing:0px;fill:#bb9457;fill-opacity:1;stroke:none;stroke-width:0.23135;stroke-linecap:butt;stroke-linejoin:miter;stroke-miterlimit:4;stroke-dasharray:none;stroke-opacity:1"
       xml:space="preserve"
       inkscape:export-filename="Exports/logo_negro.png"
       inkscape:export-xdpi="600"
       inkscape:export-ydpi="600"><tspan
         style="font-style:normal;font-variant:normal;font-weight:normal;font-stretch:normal;font-size:29.3535px;line-height:125%;font-family:Rockwell;-inkscape-font-specification:Rockwell;letter-spacing:0.012861px;word-spacing:0.012954px;fill:#000000;fill-opacity:1;stroke-width:0.23135;stroke-miterlimit:4;stroke-dasharray:none"
         y="119.34129"
         x="233.33366"
         sodipodi:role="line"
         id="tspan4557-8-9-1-6">El Adivinador</tspan></text>
  </g>
</svg>
