<?xml version="1.0" encoding="UTF-8" standalone="no"?>
<!-- Created with Inkscape (http://www.inkscape.org/) -->

<svg
   xmlns:osb="http://www.openswatchbook.org/uri/2009/osb"
   xmlns:dc="http://purl.org/dc/elements/1.1/"
   xmlns:cc="http://creativecommons.org/ns#"
   xmlns:rdf="http://www.w3.org/1999/02/22-rdf-syntax-ns#"
   xmlns:svg="http://www.w3.org/2000/svg"
   xmlns="http://www.w3.org/2000/svg"
   xmlns:sodipodi="http://sodipodi.sourceforge.net/DTD/sodipodi-0.dtd"
   xmlns:inkscape="http://www.inkscape.org/namespaces/inkscape"
   width="210mm"
   height="297mm"
   viewBox="0 0 744.09448819 1052.3622047"
   id="svg4261"
   version="1.1"
   inkscape:version="0.91 r13725"
   sodipodi:docname="drawing.svg">
  <defs
     id="defs4263">
    <linearGradient
       id="linearGradient6325"
       osb:paint="solid">
      <stop
         style="stop-color:#690008;stop-opacity:1;"
         offset="0"
         id="stop6327" />
    </linearGradient>
  </defs>
  <sodipodi:namedview
     id="base"
     pagecolor="#ffffff"
     bordercolor="#666666"
     borderopacity="1.0"
     inkscape:pageopacity="0.0"
     inkscape:pageshadow="2"
     inkscape:zoom="0.98994949"
     inkscape:cx="219.60698"
     inkscape:cy="788.08188"
     inkscape:document-units="px"
     inkscape:current-layer="layer1"
     showgrid="false"
     inkscape:window-width="1366"
     inkscape:window-height="719"
     inkscape:window-x="0"
     inkscape:window-y="26"
     inkscape:window-maximized="1" />
  <metadata
     id="metadata4266">
    <rdf:RDF>
      <cc:Work
         rdf:about="">
        <dc:format>image/svg+xml</dc:format>
        <dc:type
           rdf:resource="http://purl.org/dc/dcmitype/StillImage" />
        <dc:title></dc:title>
      </cc:Work>
    </rdf:RDF>
  </metadata>
  <g
     inkscape:label="Capa 1"
     inkscape:groupmode="layer"
     id="layer1">
    <rect
       style="opacity:1;fill:#ffffff;fill-opacity:1;stroke:none;stroke-opacity:1"
       id="rect4864"
       width="770.7464"
       height="534.37067"
       x="-22.223356"
       y="10.894931" />
    <g
       id="g4185"
       style="stroke-width:0.69999993;stroke-miterlimit:4;stroke-dasharray:none"
       transform="matrix(14.872835,0,0,14.872834,-1250.2942,1.4673243)">
      <path
         style="fill:none;fill-opacity:1;stroke:#000000;stroke-width:0.99999988;stroke-linecap:round;stroke-linejoin:miter;stroke-miterlimit:4;stroke-dasharray:none;stroke-dashoffset:0;stroke-opacity:1;paint-order:normal"
         d="m 41.71685,27.939855 c 0,0 5.647527,-0.463479 5.406377,-1.318773 -0.241147,-0.855298 -4.048958,-1.092653 -4.048958,-1.092653 0,0 -10.577035,-0.225602 -10.047434,0.978887 0.529598,1.204498 7.247838,0.861788 7.247838,0.861788 0,0 4.317791,-0.144065 4.570258,-3.327752 0.178873,-2.255586 -1.815261,-3.622251 -2.397492,-4.073558 l 0,0"
         id="path4769-3"
         inkscape:connector-curvature="0" />
      <path
         style="fill:none;fill-opacity:1;stroke:#000000;stroke-width:0.99999988;stroke-linecap:round;stroke-miterlimit:4;stroke-dasharray:none;stroke-opacity:1"
         d="m 42.467129,19.984581 c 0,0 -2.131883,-1.53038 -2.11341,-0.666113 0.141505,0.809272 1.391022,0.441782 2.256743,-0.212866 2.197521,-2.14151 -0.626857,-2.376503 -2.034053,-1.704323 -0.351691,0.179487 -0.738361,0.404418 -1.136788,0.669834 -1.773207,1.212402 -2.03731,2.511343 -1.353457,3.310511 1.404806,1.202411 3.592266,0.54799 4.927987,0.02521 1.825239,-0.726528 4.077632,-2.223358 6.16475,-5.356173 2.718723,-4.080877 1.203915,-8.4985271 -3.099943,-10.2170251 -3.099595,-1.138742 -6.14231,-0.775968 -8.859009,0.468874 -1.358607,0.63103 -2.733827,1.476023 -4.008222,2.461398 -2.560506,1.9227141 -4.403297,5.0736021 -4.545989,8.0455581 -0.075,3.312037 1.697968,6.11663 4.59318,6.292597"
         id="path4771-6"
         sodipodi:nodetypes="cccccccsccccc"
         inkscape:connector-curvature="0" />
      <path
         style="fill:none;fill-opacity:1;stroke:#000000;stroke-width:0.59999996;stroke-linecap:round;stroke-linejoin:miter;stroke-miterlimit:4;stroke-dasharray:none;stroke-dashoffset:0;stroke-opacity:1;paint-order:normal"
         d="m 37.536977,26.197447 -0.02908,-1.211442 -5.262444,-0.133083 0.04639,6.48074 c 0,0 8.303772,1.101663 14.842547,0.247965 l 10e-4,-4.929368"
         id="path4806-7"
         sodipodi:nodetypes="cccccc"
         inkscape:connector-curvature="0" />
      <path
         style="fill:none;stroke:#000000;stroke-width:0.99999988;stroke-linecap:round;stroke-miterlimit:4;stroke-dasharray:none"
         d="m 35.990411,20.430981 c 0,0 -3.863808,-0.363695 -1.841084,-4.402104 2.022726,-4.038417 6.446328,-5.122154 6.446328,-5.122154 0,0 4.79092,-1.1448411 5.88161,1.47633 0.542361,1.30342 0.1536,2.474374 -2.165517,5.351767"
         id="path234-5"
         inkscape:connector-curvature="0" />
    </g>
    <text
       sodipodi:linespacing="125%"
       id="text3338-3"
       y="637.51868"
       x="-997.46417"
       style="font-style:normal;font-weight:normal;font-size:114.97944641px;line-height:125%;font-family:sans-serif;letter-spacing:0px;word-spacing:0px;fill:#000000;fill-opacity:1;stroke:none;stroke-width:0.19999997;stroke-linecap:butt;stroke-linejoin:miter;stroke-miterlimit:4;stroke-dasharray:none;stroke-opacity:1"
       xml:space="preserve"><tspan
         style="font-style:normal;font-variant:normal;font-weight:normal;font-stretch:normal;line-height:125%;font-family:Rockwell;-inkscape-font-specification:Rockwell;letter-spacing:0.05037726px;word-spacing:0.05074201px;stroke-width:0.19999997;stroke-miterlimit:4;stroke-dasharray:none"
         y="637.51868"
         x="-997.46417"
         id="tspan3340-5"
         sodipodi:role="line">El Adivinador</tspan></text>
    <path
       inkscape:connector-curvature="0"
       id="path4769-3-3"
       d="m 423.42599,405.34452 c 17.67741,-3.24845 32.99678,-7.71132 31.42153,-13.2983 -3.5866,-12.72069 -60.21948,-16.25085 -60.21948,-16.25085 0,0 -23.03787,-0.49139 -51.03964,-0.0941 -28.15622,1.7954 -62.1239,-0.14469 -89.27638,7.12517 -6.88394,1.95549 -10.48338,4.42196 -9.11781,7.52773 7.87671,17.91426 107.7959,12.81723 107.7959,12.81723 0,0 64.21779,-2.14265 67.97269,-49.4931 2.66035,-33.54696 -26.99808,-53.87314 -35.6575,-60.58535 l 0,0"
       style="fill:none;fill-opacity:1;stroke:#8e0e17;stroke-width:14.8728323;stroke-linecap:round;stroke-linejoin:miter;stroke-miterlimit:4;stroke-dasharray:none;stroke-dashoffset:0;stroke-opacity:1;paint-order:normal"
       sodipodi:nodetypes="cscccscscc" />
    <path
       inkscape:connector-curvature="0"
       sodipodi:nodetypes="cccccccscccc"
       id="path4771-6-6"
       d="m 385.59814,293.34264 c 0,0 -31.70714,-22.76109 -31.4324,-9.90699 2.10458,12.03617 20.68845,6.57055 33.56417,-3.16592 32.68337,-31.85032 -9.32314,-35.34533 -30.25213,-25.34811 -5.23065,2.66948 -10.98153,6.01484 -16.90726,9.96233 -26.37262,18.03185 -30.30058,37.35078 -20.12975,49.23668 20.89345,17.88326 53.42718,8.15016 73.29314,0.37494 27.14648,-10.80553 60.64595,-33.06763 91.68731,-79.66147 C 525.85634,174.13989 503.32685,108.43692 439.31628,82.877981 393.21651,65.941661 347.96272,71.337138 307.5577,89.851466 244.78492,118.96074 184.8205,181.36352 180.33233,246.11968 c -1.11546,49.25938 25.2536,90.97162 68.31361,93.58875"
       style="fill:none;fill-opacity:1;stroke:#8e0e17;stroke-width:14.8728323;stroke-linecap:round;stroke-miterlimit:4;stroke-dasharray:none;stroke-opacity:1" />
    <path
       inkscape:connector-curvature="0"
       sodipodi:nodetypes="ccccccccc"
       id="path4806-7-0"
       d="m 316.31342,388.77602 -1.1468,-28.42548 -78.01679,-0.21889 c -18.64283,-1.03398 -15.70276,6.08201 -15.57558,23.66324 l 0.45464,62.84869 c -2.13654,19.49004 6.77288,16.16678 20.48889,17.21651 38.27825,2.91064 123.50415,7.83145 194.8532,0.8253 15.56644,-0.73522 16.62069,-1.08773 16.84753,-16.64113 l 0.80994,-55.53435"
       style="fill:none;fill-opacity:1;stroke:#8e0e17;stroke-width:12.05787373;stroke-linecap:round;stroke-linejoin:miter;stroke-miterlimit:4;stroke-dasharray:none;stroke-dashoffset:0;stroke-opacity:1;paint-order:normal" />
    <path
       inkscape:connector-curvature="0"
       id="path234-5-6"
       d="m 289.27098,299.98187 c 0,0 -57.46577,-5.40917 -27.38213,-65.47176 30.08367,-60.06271 95.87517,-76.18095 95.87517,-76.18095 0,0 62.16319,-22.07779 88.48636,9.83538 13.36046,16.19769 12.386,36.80096 -22.10584,79.59595"
       style="fill:none;stroke:#8e0e17;stroke-width:14.8728323;stroke-linecap:round;stroke-miterlimit:4;stroke-dasharray:none;stroke-opacity:1"
       sodipodi:nodetypes="cscsc" />
    <text
       sodipodi:linespacing="125%"
       id="text3338-3-2"
       y="632.16656"
       x="6.8215508"
       style="font-style:normal;font-weight:normal;font-size:114.97944641px;line-height:125%;font-family:sans-serif;letter-spacing:0px;word-spacing:0px;fill:#000000;fill-opacity:1;stroke:none;stroke-width:0.19999997;stroke-linecap:butt;stroke-linejoin:miter;stroke-miterlimit:4;stroke-dasharray:none;stroke-opacity:1"
       xml:space="preserve"><tspan
         style="font-style:normal;font-variant:normal;font-weight:normal;font-stretch:normal;line-height:125%;font-family:Rockwell;-inkscape-font-specification:Rockwell;letter-spacing:0.05037726px;word-spacing:0.05074201px;stroke-width:0.19999997;stroke-miterlimit:4;stroke-dasharray:none"
         y="632.16656"
         x="6.8215508"
         id="tspan3340-5-6"
         sodipodi:role="line">El Adivinador</tspan></text>
  </g>
</svg>
