<?xml version="1.0" encoding="UTF-8" standalone="no"?>
<!-- Created with Inkscape (http://www.inkscape.org/) -->

<svg
   width="210mm"
   height="297mm"
   viewBox="0 0 744.09448819 1052.3622047"
   id="svg4261"
   version="1.1"
   inkscape:version="1.2.2 (b0a8486541, 2022-12-01)"
   sodipodi:docname="drawing2.svg"
   xmlns:inkscape="http://www.inkscape.org/namespaces/inkscape"
   xmlns:sodipodi="http://sodipodi.sourceforge.net/DTD/sodipodi-0.dtd"
   xmlns="http://www.w3.org/2000/svg"
   xmlns:svg="http://www.w3.org/2000/svg"
   xmlns:rdf="http://www.w3.org/1999/02/22-rdf-syntax-ns#"
   xmlns:cc="http://creativecommons.org/ns#"
   xmlns:dc="http://purl.org/dc/elements/1.1/">
  <defs
     id="defs4263">
    <linearGradient
       id="linearGradient6325"
       inkscape:swatch="solid">
      <stop
         style="stop-color:#690008;stop-opacity:1;"
         offset="0"
         id="stop6327" />
    </linearGradient>
  </defs>
  <sodipodi:namedview
     id="base"
     pagecolor="#ffffff"
     bordercolor="#666666"
     borderopacity="1.0"
     inkscape:pageopacity="0.0"
     inkscape:pageshadow="2"
     inkscape:zoom="0.7"
     inkscape:cx="552.14286"
     inkscape:cy="609.28571"
     inkscape:document-units="px"
     inkscape:current-layer="layer1"
     showgrid="false"
     inkscape:window-width="1920"
     inkscape:window-height="1023"
     inkscape:window-x="0"
     inkscape:window-y="28"
     inkscape:window-maximized="1"
     showguides="false"
     inkscape:showpageshadow="2"
     inkscape:pagecheckerboard="0"
     inkscape:deskcolor="#d1d1d1">
    <sodipodi:guide
       position="-90.91373,761.65504"
       orientation="1,0"
       id="guide4864"
       inkscape:locked="false" />
  </sodipodi:namedview>
  <metadata
     id="metadata4266">
    <rdf:RDF>
      <cc:Work
         rdf:about="">
        <dc:format>image/svg+xml</dc:format>
        <dc:type
           rdf:resource="http://purl.org/dc/dcmitype/StillImage" />
        <dc:title />
      </cc:Work>
    </rdf:RDF>
  </metadata>
  <g
     inkscape:label="Capa 1"
     inkscape:groupmode="layer"
     id="layer1">
    <rect
       style="opacity:1;fill:#f7c990;fill-opacity:1;stroke:none;stroke-width:2.89394;stroke-linecap:round;stroke-miterlimit:4;stroke-dasharray:none;stroke-opacity:1"
       id="rect4583"
       width="239.00278"
       height="239.00278"
       x="12.702274"
       y="64.943756" />
    <path
       inkscape:connector-curvature="0"
       id="path4769-3-3"
       d="m 150.65534,185.025 c 4.12793,-0.75856 7.70523,-1.8007 7.33738,-3.10535 -0.83752,-2.97046 -14.06212,-3.79481 -14.06212,-3.79481 0,0 -5.37968,-0.11474 -11.9185,-0.022 -6.57489,0.41925 -14.50684,-0.0338 -20.84734,1.66383 -1.6075,0.45663 -2.44802,1.03259 -2.12914,1.75783 1.83932,4.18325 25.17191,2.99301 25.17191,2.99301 0,0 14.9958,-0.50034 15.87262,-11.55735 0.62123,-7.83371 -6.30444,-12.58017 -8.32655,-14.14757 v 0"
       style="fill:none;fill-opacity:1;stroke:#ad2731;stroke-width:3.21925;stroke-linecap:round;stroke-linejoin:miter;stroke-miterlimit:4;stroke-dasharray:none;stroke-dashoffset:0;stroke-opacity:1;paint-order:normal"
       sodipodi:nodetypes="cscccscscc" />
    <path
       inkscape:connector-curvature="0"
       sodipodi:nodetypes="cccccccscccc"
       id="path4771-6-6"
       d="m 141.82199,158.87093 c 0,0 -7.40408,-5.31505 -7.33993,-2.31343 0.49145,2.81062 4.83105,1.53432 7.83773,-0.73929 7.63204,-7.43751 -2.17709,-8.25365 -7.06432,-5.91915 -1.22143,0.62336 -2.56434,1.40455 -3.94809,2.32635 -6.15839,4.2107 -7.07563,8.72195 -4.70059,11.49748 4.87892,4.176 12.47602,1.90318 17.11502,0.0876 6.3391,-2.52324 14.16171,-7.72177 21.41032,-18.60211 9.44219,-14.17299 4.18123,-29.51559 -10.76617,-35.48397 -10.76497,-3.95488 -21.3324,-2.69495 -30.76756,1.62841 -14.65836,6.79744 -28.660914,21.3694 -29.708964,36.49091 -0.26048,11.50278 5.89708,21.2432 15.952214,21.85434"
       style="fill:none;fill-opacity:1;stroke:#ad2731;stroke-width:3.00776;stroke-linecap:round;stroke-miterlimit:4;stroke-dasharray:none;stroke-opacity:1" />
    <path
       inkscape:connector-curvature="0"
       sodipodi:nodetypes="ccccccccc"
       id="path4806-7-0"
       d="m 125.64299,181.15602 -0.26779,-6.63777 -18.21806,-0.0511 c -4.35337,-0.24145 -3.66683,1.42023 -3.63712,5.52571 l 0.10616,14.67608 c -0.49892,4.55121 1.58156,3.77518 4.78445,4.02031 8.93853,0.67968 28.84002,1.82876 45.50107,0.19272 3.63499,-0.17168 3.88117,-0.254 3.93414,-3.88595 l 0.18913,-12.96808"
       style="fill:none;fill-opacity:1;stroke:#ad2731;stroke-width:2.81569;stroke-linecap:round;stroke-linejoin:miter;stroke-miterlimit:4;stroke-dasharray:none;stroke-dashoffset:0;stroke-opacity:1;paint-order:normal" />
    <path
       inkscape:connector-curvature="0"
       id="path234-5-6"
       d="m 119.32819,160.42128 c 0,0 -13.4191,-1.26312 -6.39413,-15.28861 7.02498,-14.02552 22.38825,-17.78936 22.38825,-17.78936 0,0 14.51602,-5.15548 20.66286,2.2967 3.11986,3.7824 2.89231,8.59357 -5.16204,18.58682"
       style="fill:none;stroke:#ad2731;stroke-width:3.00776;stroke-linecap:round;stroke-miterlimit:4;stroke-dasharray:none;stroke-opacity:1"
       sodipodi:nodetypes="cscsc" />
    <text
       id="text3338-3-2"
       y="227.03735"
       x="49.856899"
       style="font-style:normal;font-weight:normal;line-height:0%;font-family:sans-serif;letter-spacing:0px;word-spacing:0px;fill:#000000;fill-opacity:1;stroke:none;stroke-width:0.2;stroke-linecap:butt;stroke-linejoin:miter;stroke-miterlimit:4;stroke-dasharray:none;stroke-opacity:1"
       xml:space="preserve"><tspan
         style="font-style:normal;font-variant:normal;font-weight:normal;font-stretch:normal;font-size:25.4251px;line-height:125%;font-family:Rockwell;-inkscape-font-specification:Rockwell;letter-spacing:0.0111398px;word-spacing:0.0112204px;fill:#ad2731;fill-opacity:1;stroke-width:0.2;stroke-miterlimit:4;stroke-dasharray:none"
         y="227.03735"
         x="49.856899"
         sodipodi:role="line"
         id="tspan4557">La Adivinadora</tspan></text>
    <path
       inkscape:connector-curvature="0"
       id="path4769-3-3-6"
       d="m 394.99648,185.67786 c 4.12793,-0.75856 7.70523,-1.8007 7.33738,-3.10535 -0.83752,-2.97046 -14.06212,-3.79481 -14.06212,-3.79481 0,0 -5.37968,-0.11474 -11.9185,-0.022 -6.57489,0.41925 -14.50684,-0.0338 -20.84735,1.66383 -1.6075,0.45663 -2.44802,1.03259 -2.12914,1.75783 1.83932,4.18325 25.17192,2.99301 25.17192,2.99301 0,0 14.9958,-0.50034 15.87262,-11.55735 0.62123,-7.83371 -6.30444,-12.58017 -8.32655,-14.14757 v 0"
       style="fill:none;fill-opacity:1;stroke:#ad2731;stroke-width:3.21925;stroke-linecap:round;stroke-linejoin:miter;stroke-miterlimit:4;stroke-dasharray:none;stroke-dashoffset:0;stroke-opacity:1;paint-order:normal"
       sodipodi:nodetypes="cscccscscc" />
    <path
       inkscape:connector-curvature="0"
       sodipodi:nodetypes="cccccccscccc"
       id="path4771-6-6-7"
       d="m 386.16313,159.52379 c 0,0 -7.40408,-5.31505 -7.33993,-2.31343 0.49145,2.81062 4.83105,1.53432 7.83773,-0.73929 7.63204,-7.43751 -2.17709,-8.25365 -7.06432,-5.91915 -1.22143,0.62336 -2.56434,1.40455 -3.94809,2.32635 -6.15839,4.2107 -7.07563,8.72195 -4.70059,11.49748 4.87892,4.176 12.47602,1.90318 17.11502,0.0876 6.3391,-2.52324 14.16171,-7.72177 21.41032,-18.60211 9.44219,-14.17299 4.18123,-29.51559 -10.76617,-35.48397 -10.76497,-3.95488 -21.3324,-2.69495 -30.76756,1.62841 -14.65837,6.79744 -28.66092,21.3694 -29.70897,36.49091 -0.26048,11.50278 5.89708,21.2432 15.95221,21.85434"
       style="fill:none;fill-opacity:1;stroke:#ad2731;stroke-width:3.00776;stroke-linecap:round;stroke-miterlimit:4;stroke-dasharray:none;stroke-opacity:1" />
    <path
       inkscape:connector-curvature="0"
       sodipodi:nodetypes="ccccccccc"
       id="path4806-7-0-5"
       d="m 369.98413,181.80888 -0.26779,-6.63777 -18.21807,-0.0511 c -4.35337,-0.24145 -3.66683,1.42023 -3.63712,5.52571 l 0.10616,14.67608 c -0.49892,4.55121 1.58156,3.77518 4.78445,4.02031 8.93854,0.67968 28.84003,1.82876 45.50108,0.19272 3.63499,-0.17168 3.88117,-0.254 3.93414,-3.88595 l 0.18913,-12.96808"
       style="fill:none;fill-opacity:1;stroke:#ad2731;stroke-width:2.81569;stroke-linecap:round;stroke-linejoin:miter;stroke-miterlimit:4;stroke-dasharray:none;stroke-dashoffset:0;stroke-opacity:1;paint-order:normal" />
    <path
       inkscape:connector-curvature="0"
       id="path234-5-6-3"
       d="m 363.66933,161.07414 c 0,0 -13.41911,-1.26312 -6.39413,-15.28861 7.02498,-14.02552 22.38825,-17.78936 22.38825,-17.78936 0,0 14.51602,-5.15548 20.66286,2.2967 3.11986,3.7824 2.89231,8.59357 -5.16204,18.58682"
       style="fill:none;stroke:#ad2731;stroke-width:3.00776;stroke-linecap:round;stroke-miterlimit:4;stroke-dasharray:none;stroke-opacity:1"
       sodipodi:nodetypes="cscsc" />
    <text
       id="text3338-3-2-5"
       y="227.69022"
       x="294.19803"
       style="font-style:normal;font-weight:normal;line-height:0%;font-family:sans-serif;letter-spacing:0px;word-spacing:0px;fill:#000000;fill-opacity:1;stroke:none;stroke-width:0.2;stroke-linecap:butt;stroke-linejoin:miter;stroke-miterlimit:4;stroke-dasharray:none;stroke-opacity:1"
       xml:space="preserve"><tspan
         style="font-style:normal;font-variant:normal;font-weight:normal;font-stretch:normal;font-size:25.4251px;line-height:125%;font-family:Rockwell;-inkscape-font-specification:Rockwell;letter-spacing:0.0111398px;word-spacing:0.0112204px;fill:#ad2731;fill-opacity:1;stroke-width:0.2;stroke-miterlimit:4;stroke-dasharray:none"
         y="227.69022"
         x="294.19803"
         sodipodi:role="line"
         id="tspan4557-6">El Adivinador</tspan></text>
    <rect
       style="opacity:1;fill:#000000;fill-opacity:1;stroke:none;stroke-width:2.89394;stroke-linecap:round;stroke-miterlimit:4;stroke-dasharray:none;stroke-opacity:1"
       id="rect4583-3-2"
       width="239.00278"
       height="239.00278"
       x="496.3735"
       y="65.465736" />
    <path
       inkscape:connector-curvature="0"
       id="path4769-3-3-6-9"
       d="m 634.32657,185.54699 c 4.12793,-0.75856 7.70523,-1.8007 7.33738,-3.10535 -0.83752,-2.97046 -14.06212,-3.79481 -14.06212,-3.79481 0,0 -5.37968,-0.11474 -11.9185,-0.022 -6.57489,0.41925 -14.50684,-0.0338 -20.84735,1.66383 -1.6075,0.45663 -2.44802,1.03259 -2.12914,1.75783 1.83932,4.18325 25.17192,2.99301 25.17192,2.99301 0,0 14.9958,-0.50034 15.87262,-11.55735 0.62123,-7.83371 -6.30444,-12.58017 -8.32655,-14.14757 v 0"
       style="fill:none;fill-opacity:1;stroke:#ad2731;stroke-width:3.21925;stroke-linecap:round;stroke-linejoin:miter;stroke-miterlimit:4;stroke-dasharray:none;stroke-dashoffset:0;stroke-opacity:1;paint-order:normal"
       sodipodi:nodetypes="cscccscscc" />
    <path
       inkscape:connector-curvature="0"
       sodipodi:nodetypes="cccccccscccc"
       id="path4771-6-6-7-1"
       d="m 625.49322,159.39292 c 0,0 -7.40408,-5.31505 -7.33993,-2.31343 0.49145,2.81062 4.83105,1.53432 7.83773,-0.73929 7.63204,-7.43751 -2.17709,-8.25365 -7.06432,-5.91915 -1.22143,0.62336 -2.56434,1.40455 -3.94809,2.32635 -6.15839,4.2107 -7.07563,8.72195 -4.70059,11.49747 4.87892,4.17601 12.47602,1.90319 17.11502,0.0876 6.3391,-2.52323 14.16171,-7.72176 21.41032,-18.6021 9.44219,-14.17299 4.18123,-29.51559 -10.76617,-35.48397 -10.76497,-3.95488 -21.3324,-2.69495 -30.76756,1.62841 -14.65837,6.79744 -28.66092,21.3694 -29.70897,36.49091 -0.26048,11.50278 5.89708,21.2432 15.95221,21.85434"
       style="fill:none;fill-opacity:1;stroke:#ad2731;stroke-width:3.00776;stroke-linecap:round;stroke-miterlimit:4;stroke-dasharray:none;stroke-opacity:1" />
    <path
       inkscape:connector-curvature="0"
       sodipodi:nodetypes="ccccccccc"
       id="path4806-7-0-5-2"
       d="m 609.31422,181.67801 -0.26779,-6.63777 -18.21807,-0.0511 c -4.35337,-0.24145 -3.66683,1.42023 -3.63712,5.52571 l 0.10616,14.67608 c -0.49892,4.55121 1.58156,3.77518 4.78445,4.02031 8.93854,0.67968 28.84003,1.82876 45.50108,0.19272 3.63499,-0.17168 3.88117,-0.254 3.93414,-3.88595 l 0.18913,-12.96808"
       style="fill:none;fill-opacity:1;stroke:#ad2731;stroke-width:2.81569;stroke-linecap:round;stroke-linejoin:miter;stroke-miterlimit:4;stroke-dasharray:none;stroke-dashoffset:0;stroke-opacity:1;paint-order:normal" />
    <path
       inkscape:connector-curvature="0"
       id="path234-5-6-3-7"
       d="m 602.99942,160.94327 c 0,0 -13.41911,-1.26312 -6.39413,-15.28861 7.02498,-14.02552 22.38825,-17.78936 22.38825,-17.78936 0,0 14.51602,-5.15548 20.66286,2.2967 3.11986,3.7824 2.89231,8.59357 -5.16204,18.58682"
       style="fill:none;stroke:#ad2731;stroke-width:3.00776;stroke-linecap:round;stroke-miterlimit:4;stroke-dasharray:none;stroke-opacity:1"
       sodipodi:nodetypes="cscsc" />
    <text
       id="text3338-3-2-5-0"
       y="227.55933"
       x="533.52814"
       style="font-style:normal;font-weight:normal;line-height:0%;font-family:sans-serif;letter-spacing:0px;word-spacing:0px;fill:#000000;fill-opacity:1;stroke:none;stroke-width:0.2;stroke-linecap:butt;stroke-linejoin:miter;stroke-miterlimit:4;stroke-dasharray:none;stroke-opacity:1"
       xml:space="preserve"><tspan
         style="font-style:normal;font-variant:normal;font-weight:normal;font-stretch:normal;font-size:25.4251px;line-height:125%;font-family:Rockwell;-inkscape-font-specification:Rockwell;letter-spacing:0.0111398px;word-spacing:0.0112204px;fill:#ad2731;fill-opacity:1;stroke-width:0.2;stroke-miterlimit:4;stroke-dasharray:none"
         y="227.55933"
         x="533.52814"
         sodipodi:role="line"
         id="tspan4557-6-9">El Adivinador</tspan></text>
    <rect
       style="opacity:1;fill:#ad2731;fill-opacity:1;stroke:none;stroke-width:2.89394;stroke-linecap:round;stroke-miterlimit:4;stroke-dasharray:none;stroke-opacity:1"
       id="rect4583-36"
       width="239.00278"
       height="239.00278"
       x="11.839016"
       y="308.18073" />
    <path
       inkscape:connector-curvature="0"
       id="path4769-3-3-0"
       d="m 149.79208,428.26199 c 4.12793,-0.75856 7.70523,-1.8007 7.33738,-3.10535 -0.83752,-2.97046 -14.06212,-3.79481 -14.06212,-3.79481 0,0 -5.37968,-0.11474 -11.9185,-0.022 -6.57489,0.41925 -14.50684,-0.0338 -20.84734,1.66383 -1.60749,0.45663 -2.44801,1.03259 -2.12913,1.75783 1.83932,4.18325 25.1719,2.99301 25.1719,2.99301 0,0 14.9958,-0.50034 15.87262,-11.55735 0.62123,-7.83371 -6.30444,-12.58017 -8.32655,-14.14757 v 0"
       style="fill:none;fill-opacity:1;stroke:#410005;stroke-width:3.21925;stroke-linecap:round;stroke-linejoin:miter;stroke-miterlimit:4;stroke-dasharray:none;stroke-dashoffset:0;stroke-opacity:1;paint-order:normal"
       sodipodi:nodetypes="cscccscscc" />
    <path
       inkscape:connector-curvature="0"
       sodipodi:nodetypes="cccccccscccc"
       id="path4771-6-6-6"
       d="m 140.95873,402.10792 c 0,0 -7.40408,-5.31505 -7.33993,-2.31343 0.49145,2.81062 4.83105,1.53432 7.83773,-0.73929 7.63204,-7.43751 -2.17709,-8.25365 -7.06432,-5.91915 -1.22143,0.62336 -2.56434,1.40455 -3.94809,2.32635 -6.15839,4.2107 -7.07563,8.72195 -4.70059,11.49748 4.87892,4.176 12.47602,1.90318 17.11502,0.0876 6.3391,-2.52324 14.16171,-7.72177 21.41032,-18.60211 9.44219,-14.17299 4.18123,-29.51559 -10.76617,-35.48397 -10.76497,-3.95488 -21.3324,-2.69495 -30.76756,1.62841 -14.65835,6.79744 -28.660916,21.3694 -29.708966,36.49091 -0.26048,11.50278 5.89708,21.2432 15.952226,21.85434"
       style="fill:none;fill-opacity:1;stroke:#410005;stroke-width:3.00776;stroke-linecap:round;stroke-miterlimit:4;stroke-dasharray:none;stroke-opacity:1" />
    <path
       inkscape:connector-curvature="0"
       sodipodi:nodetypes="ccccccccc"
       id="path4806-7-0-2"
       d="m 124.77973,424.39301 -0.26779,-6.63777 -18.21805,-0.0511 c -4.35338,-0.24145 -3.66684,1.42023 -3.63713,5.52571 l 0.10616,14.67608 c -0.49892,4.55121 1.58157,3.77518 4.78446,4.02031 8.93852,0.67968 28.84001,1.82876 45.50106,0.19272 3.63499,-0.17168 3.88117,-0.254 3.93414,-3.88595 l 0.18913,-12.96808"
       style="fill:none;fill-opacity:1;stroke:#410005;stroke-width:2.81569;stroke-linecap:round;stroke-linejoin:miter;stroke-miterlimit:4;stroke-dasharray:none;stroke-dashoffset:0;stroke-opacity:1;paint-order:normal" />
    <path
       inkscape:connector-curvature="0"
       id="path234-5-6-6"
       d="m 118.46493,403.65827 c 0,0 -13.41909,-1.26312 -6.39413,-15.28861 7.02498,-14.02552 22.38825,-17.78936 22.38825,-17.78936 0,0 14.51602,-5.15548 20.66286,2.2967 3.11986,3.7824 2.89231,8.59357 -5.16204,18.58682"
       style="fill:none;stroke:#410005;stroke-width:3.00776;stroke-linecap:round;stroke-miterlimit:4;stroke-dasharray:none;stroke-opacity:1"
       sodipodi:nodetypes="cscsc" />
    <text
       id="text3338-3-2-1"
       y="470.27438"
       x="48.993633"
       style="font-style:normal;font-weight:normal;line-height:0%;font-family:sans-serif;letter-spacing:0px;word-spacing:0px;fill:#410005;fill-opacity:1;stroke:none;stroke-width:0.2;stroke-linecap:butt;stroke-linejoin:miter;stroke-miterlimit:4;stroke-dasharray:none;stroke-opacity:1"
       xml:space="preserve"><tspan
         style="font-style:normal;font-variant:normal;font-weight:normal;font-stretch:normal;font-size:25.4251px;line-height:125%;font-family:Rockwell;-inkscape-font-specification:Rockwell;letter-spacing:0.0111398px;word-spacing:0.0112204px;fill:#410005;fill-opacity:1;stroke-width:0.2;stroke-miterlimit:4;stroke-dasharray:none"
         y="470.27438"
         x="48.993633"
         sodipodi:role="line"
         id="tspan4557-8">El Adivinador</tspan></text>
    <rect
       style="fill:#a91a22;fill-opacity:1;stroke:none;stroke-width:2.89394;stroke-linecap:round;stroke-miterlimit:4;stroke-dasharray:none;stroke-opacity:1"
       id="rect4583-36-0"
       width="239.00278"
       height="239.00278"
       x="495.23361"
       y="554.276" />
    <path
       inkscape:connector-curvature="0"
       id="path4769-3-3-0-9"
       d="m 633.18664,674.35721 c 4.12793,-0.75856 7.70523,-1.8007 7.33738,-3.10535 -0.83752,-2.97046 -14.06212,-3.79481 -14.06212,-3.79481 0,0 -5.37968,-0.11474 -11.9185,-0.022 -6.57489,0.41925 -14.50684,-0.0338 -20.84734,1.66383 -1.60749,0.45663 -2.44801,1.03259 -2.12913,1.75783 1.83932,4.18325 25.1719,2.99301 25.1719,2.99301 0,0 14.9958,-0.50034 15.87262,-11.55735 0.62123,-7.83371 -6.30444,-12.58017 -8.32655,-14.14757 v 0"
       style="fill:none;fill-opacity:1;stroke:#410005;stroke-width:3.21925;stroke-linecap:round;stroke-linejoin:miter;stroke-miterlimit:4;stroke-dasharray:none;stroke-dashoffset:0;stroke-opacity:1;paint-order:normal"
       sodipodi:nodetypes="cscccscscc" />
    <path
       inkscape:connector-curvature="0"
       sodipodi:nodetypes="cccccccscccc"
       id="path4771-6-6-6-3"
       d="m 624.35329,648.20314 c 0,0 -7.40408,-5.31505 -7.33993,-2.31343 0.49145,2.81062 4.83105,1.53432 7.83773,-0.73929 7.63204,-7.43751 -2.17709,-8.25365 -7.06432,-5.91915 -1.22143,0.62336 -2.56434,1.40455 -3.94809,2.32635 -6.15839,4.2107 -7.07563,8.72195 -4.70059,11.49748 4.87892,4.176 12.47602,1.90318 17.11502,0.0876 6.3391,-2.52324 14.16171,-7.72177 21.41032,-18.60211 9.44219,-14.17299 4.18123,-29.51559 -10.76617,-35.48397 -10.76497,-3.95488 -21.3324,-2.69495 -30.76756,1.62841 -14.65835,6.79744 -28.66092,21.3694 -29.70897,36.49091 -0.26048,11.50278 5.89708,21.2432 15.95223,21.85434"
       style="fill:none;fill-opacity:1;stroke:#410005;stroke-width:3.00776;stroke-linecap:round;stroke-miterlimit:4;stroke-dasharray:none;stroke-opacity:1" />
    <path
       inkscape:connector-curvature="0"
       sodipodi:nodetypes="ccccccccc"
       id="path4806-7-0-2-60"
       d="m 608.17429,670.48823 -0.26779,-6.63777 -18.21805,-0.0511 c -4.35338,-0.24145 -3.66684,1.42023 -3.63713,5.52571 l 0.10616,14.67608 c -0.49892,4.55121 1.58157,3.77518 4.78446,4.02031 8.93852,0.67968 28.84001,1.82876 45.50106,0.19272 3.63499,-0.17168 3.88117,-0.254 3.93414,-3.88595 l 0.18913,-12.96808"
       style="fill:none;fill-opacity:1;stroke:#410005;stroke-width:2.81569;stroke-linecap:round;stroke-linejoin:miter;stroke-miterlimit:4;stroke-dasharray:none;stroke-dashoffset:0;stroke-opacity:1;paint-order:normal" />
    <path
       inkscape:connector-curvature="0"
       id="path234-5-6-6-6"
       d="m 601.85949,649.75349 c 0,0 -13.41909,-1.26312 -6.39413,-15.28861 7.02498,-14.02552 22.38825,-17.78936 22.38825,-17.78936 0,0 14.51602,-5.15548 20.66286,2.2967 3.11986,3.7824 2.89231,8.59357 -5.16204,18.58682"
       style="fill:none;stroke:#410005;stroke-width:3.00776;stroke-linecap:round;stroke-miterlimit:4;stroke-dasharray:none;stroke-opacity:1"
       sodipodi:nodetypes="cscsc" />
    <text
       id="text3338-3-2-1-2"
       y="716.36963"
       x="532.38824"
       style="font-style:normal;font-weight:normal;line-height:0%;font-family:sans-serif;letter-spacing:0px;word-spacing:0px;fill:#410005;fill-opacity:1;stroke:none;stroke-width:0.2;stroke-linecap:butt;stroke-linejoin:miter;stroke-miterlimit:4;stroke-dasharray:none;stroke-opacity:1"
       xml:space="preserve"><tspan
         style="font-style:normal;font-variant:normal;font-weight:normal;font-stretch:normal;font-size:25.4251px;line-height:125%;font-family:Rockwell;-inkscape-font-specification:Rockwell;letter-spacing:0.0111398px;word-spacing:0.0112204px;fill:#410005;fill-opacity:1;stroke-width:0.2;stroke-miterlimit:4;stroke-dasharray:none"
         y="716.36963"
         x="532.38824"
         sodipodi:role="line"
         id="tspan4557-8-6">El Adivinador</tspan></text>
    <rect
       style="opacity:1;fill:#410005;fill-opacity:1;stroke:none;stroke-width:2.89394;stroke-linecap:round;stroke-miterlimit:4;stroke-dasharray:none;stroke-opacity:1"
       id="rect4583-3-7"
       width="239.00278"
       height="239.00278"
       x="252.75496"
       y="308.68726" />
    <path
       inkscape:connector-curvature="0"
       id="path4769-3-3-6-92"
       d="m 390.70803,428.76851 c 4.12793,-0.75856 7.70523,-1.8007 7.33738,-3.10535 -0.83752,-2.97046 -14.06212,-3.79481 -14.06212,-3.79481 0,0 -5.37968,-0.11474 -11.9185,-0.022 -6.57489,0.41925 -14.50684,-0.0338 -20.84735,1.66383 -1.6075,0.45663 -2.44802,1.03259 -2.12914,1.75783 1.83932,4.18325 25.17192,2.99301 25.17192,2.99301 0,0 14.9958,-0.50034 15.87262,-11.55735 0.62123,-7.83371 -6.30444,-12.58017 -8.32655,-14.14757 v 0"
       style="fill:none;fill-opacity:1;stroke:#ad2731;stroke-width:3.21925;stroke-linecap:round;stroke-linejoin:miter;stroke-miterlimit:4;stroke-dasharray:none;stroke-dashoffset:0;stroke-opacity:1;paint-order:normal"
       sodipodi:nodetypes="cscccscscc" />
    <path
       inkscape:connector-curvature="0"
       sodipodi:nodetypes="cccccccscccc"
       id="path4771-6-6-7-0"
       d="m 381.87468,402.61444 c 0,0 -7.40408,-5.31505 -7.33993,-2.31343 0.49145,2.81062 4.83105,1.53432 7.83773,-0.73929 7.63204,-7.43751 -2.17709,-8.25365 -7.06432,-5.91915 -1.22143,0.62336 -2.56434,1.40455 -3.94809,2.32635 -6.15839,4.2107 -7.07563,8.72195 -4.70059,11.49748 4.87892,4.176 12.47602,1.90318 17.11502,0.0876 6.3391,-2.52324 14.16171,-7.72177 21.41032,-18.60211 9.44219,-14.17299 4.18123,-29.51559 -10.76617,-35.48397 -10.76497,-3.95488 -21.3324,-2.69495 -30.76756,1.62841 -14.65837,6.79744 -28.66092,21.3694 -29.70897,36.49091 -0.26048,11.50278 5.89708,21.2432 15.95221,21.85434"
       style="fill:none;fill-opacity:1;stroke:#ad2731;stroke-width:3.00776;stroke-linecap:round;stroke-miterlimit:4;stroke-dasharray:none;stroke-opacity:1" />
    <path
       inkscape:connector-curvature="0"
       sodipodi:nodetypes="ccccccccc"
       id="path4806-7-0-5-23"
       d="m 365.69568,424.89953 -0.26779,-6.63777 -18.21807,-0.0511 c -4.35337,-0.24145 -3.66683,1.42023 -3.63712,5.52571 l 0.10616,14.67608 c -0.49892,4.55121 1.58156,3.77518 4.78445,4.02031 8.93854,0.67968 28.84003,1.82876 45.50108,0.19272 3.63499,-0.17168 3.88117,-0.254 3.93414,-3.88595 l 0.18913,-12.96808"
       style="fill:none;fill-opacity:1;stroke:#ad2731;stroke-width:2.81569;stroke-linecap:round;stroke-linejoin:miter;stroke-miterlimit:4;stroke-dasharray:none;stroke-dashoffset:0;stroke-opacity:1;paint-order:normal" />
    <path
       inkscape:connector-curvature="0"
       id="path234-5-6-3-75"
       d="m 359.38088,404.16479 c 0,0 -13.41911,-1.26312 -6.39413,-15.28861 7.02498,-14.02552 22.38825,-17.78936 22.38825,-17.78936 0,0 14.51602,-5.15548 20.66286,2.2967 3.11986,3.7824 2.89231,8.59357 -5.16204,18.58682"
       style="fill:none;stroke:#ad2731;stroke-width:3.00776;stroke-linecap:round;stroke-miterlimit:4;stroke-dasharray:none;stroke-opacity:1"
       sodipodi:nodetypes="cscsc" />
    <text
       id="text3338-3-2-5-9"
       y="470.78085"
       x="289.90955"
       style="font-style:normal;font-weight:normal;line-height:0%;font-family:sans-serif;letter-spacing:0px;word-spacing:0px;fill:#000000;fill-opacity:1;stroke:none;stroke-width:0.2;stroke-linecap:butt;stroke-linejoin:miter;stroke-miterlimit:4;stroke-dasharray:none;stroke-opacity:1"
       xml:space="preserve"><tspan
         style="font-style:normal;font-variant:normal;font-weight:normal;font-stretch:normal;font-size:25.4251px;line-height:125%;font-family:Rockwell;-inkscape-font-specification:Rockwell;letter-spacing:0.0111398px;word-spacing:0.0112204px;fill:#ad2731;fill-opacity:1;stroke-width:0.2;stroke-miterlimit:4;stroke-dasharray:none"
         y="470.78085"
         x="289.90955"
         sodipodi:role="line"
         id="tspan4557-6-2">El Adivinador</tspan></text>
    <rect
       style="fill:#410005;fill-opacity:1;stroke:none;stroke-width:2.89394;stroke-linecap:round;stroke-miterlimit:4;stroke-dasharray:none;stroke-opacity:1"
       id="rect4583-3-7-36"
       width="239.00278"
       height="239.00278"
       x="251.95389"
       y="800.58179" />
    <path
       inkscape:connector-curvature="0"
       id="path4769-3-3-6-92-75"
       d="m 389.90697,920.66314 c 4.12793,-0.7586 7.70523,-1.8007 7.33738,-3.1054 -0.83752,-2.9704 -14.06212,-3.7948 -14.06212,-3.7948 0,0 -5.37968,-0.1147 -11.9185,-0.022 -6.57489,0.4193 -14.50684,-0.034 -20.84735,1.6638 -1.6075,0.4567 -2.44802,1.0326 -2.12914,1.7579 1.83932,4.1832 25.17192,2.993 25.17192,2.993 0,0 14.9958,-0.5004 15.87262,-11.5574 0.62123,-7.8337 -6.30444,-12.5801 -8.32655,-14.1475 v 0"
       style="fill:none;fill-opacity:1;stroke:#a7121b;stroke-width:3.21925;stroke-linecap:round;stroke-linejoin:miter;stroke-miterlimit:4;stroke-dasharray:none;stroke-dashoffset:0;stroke-opacity:1;paint-order:normal"
       sodipodi:nodetypes="cscccscscc" />
    <path
       inkscape:connector-curvature="0"
       sodipodi:nodetypes="cccccccscccc"
       id="path4771-6-6-7-0-3"
       d="m 381.07362,894.50904 c 0,0 -7.40408,-5.315 -7.33993,-2.3134 0.49145,2.8106 4.83105,1.5343 7.83773,-0.7393 7.63204,-7.4375 -2.17709,-8.2537 -7.06432,-5.9192 -1.22143,0.6234 -2.56434,1.4046 -3.94809,2.3264 -6.15839,4.2107 -7.07563,8.7219 -4.70059,11.4975 4.87892,4.176 12.47602,1.9031 17.11502,0.088 6.3391,-2.5233 14.16171,-7.7218 21.41032,-18.6021 9.44219,-14.173 4.18123,-29.51564 -10.76617,-35.48402 -10.76497,-3.95488 -21.3324,-2.69495 -30.76756,1.62841 -14.65837,6.79744 -28.66092,21.36941 -29.70897,36.49091 -0.26048,11.5028 5.89708,21.2432 15.95221,21.8543"
       style="fill:none;fill-opacity:1;stroke:#a7121b;stroke-width:3.00776;stroke-linecap:round;stroke-miterlimit:4;stroke-dasharray:none;stroke-opacity:1" />
    <path
       inkscape:connector-curvature="0"
       sodipodi:nodetypes="ccccccccc"
       id="path4806-7-0-5-23-56"
       d="m 364.89462,916.79414 -0.26779,-6.6378 -18.21807,-0.051 c -4.35337,-0.2414 -3.66683,1.4203 -3.63712,5.5257 l 0.10616,14.6761 c -0.49892,4.5512 1.58156,3.7752 4.78445,4.0203 8.93854,0.6797 28.84003,1.8288 45.50108,0.1927 3.63499,-0.1716 3.88117,-0.254 3.93414,-3.8859 l 0.18913,-12.9681"
       style="fill:none;fill-opacity:1;stroke:#a7121b;stroke-width:2.81569;stroke-linecap:round;stroke-linejoin:miter;stroke-miterlimit:4;stroke-dasharray:none;stroke-dashoffset:0;stroke-opacity:1;paint-order:normal" />
    <path
       inkscape:connector-curvature="0"
       id="path234-5-6-3-75-29"
       d="m 358.57982,896.05944 c 0,0 -13.41911,-1.2632 -6.39413,-15.2887 7.02498,-14.0255 22.38825,-17.7893 22.38825,-17.7893 0,0 14.51602,-5.1555 20.66286,2.2967 3.11986,3.7824 2.89231,8.5936 -5.16204,18.5868"
       style="fill:none;stroke:#a7121b;stroke-width:3.00776;stroke-linecap:round;stroke-miterlimit:4;stroke-dasharray:none;stroke-opacity:1"
       sodipodi:nodetypes="cscsc" />
    <text
       id="text3338-3-2-5-9-1"
       y="962.67548"
       x="289.10852"
       style="font-style:normal;font-weight:normal;line-height:0%;font-family:sans-serif;letter-spacing:0px;word-spacing:0px;fill:#000000;fill-opacity:1;stroke:none;stroke-width:0.2;stroke-linecap:butt;stroke-linejoin:miter;stroke-miterlimit:4;stroke-dasharray:none;stroke-opacity:1"
       xml:space="preserve"><tspan
         style="font-style:normal;font-variant:normal;font-weight:normal;font-stretch:normal;font-size:25.4251px;line-height:125%;font-family:Rockwell;-inkscape-font-specification:Rockwell;letter-spacing:0.0111398px;word-spacing:0.0112204px;fill:#a7121b;fill-opacity:1;stroke-width:0.2;stroke-miterlimit:4;stroke-dasharray:none"
         y="962.67548"
         x="289.10852"
         sodipodi:role="line"
         id="tspan4557-6-2-2">El Adivinador</tspan></text>
    <rect
       style="opacity:1;fill:#99582a;fill-opacity:1;stroke:none;stroke-width:2.89394;stroke-linecap:round;stroke-miterlimit:4;stroke-dasharray:none;stroke-opacity:1"
       id="rect4583-36-5"
       width="239.00278"
       height="239.00278"
       x="10.784176"
       y="800.41296" />
    <path
       inkscape:connector-curvature="0"
       id="path4769-3-3-0-4"
       d="m 148.73724,920.4942 c 4.12793,-0.75856 7.70523,-1.8007 7.33738,-3.10535 -0.83752,-2.97046 -14.06212,-3.79481 -14.06212,-3.79481 0,0 -5.37968,-0.11474 -11.9185,-0.022 -6.57489,0.41925 -14.50684,-0.0338 -20.84734,1.66383 -1.6075,0.45663 -2.44802,1.03259 -2.12914,1.75783 1.83932,4.18325 25.17191,2.99301 25.17191,2.99301 0,0 14.9958,-0.50034 15.87262,-11.55735 0.62123,-7.83371 -6.30444,-12.58017 -8.32655,-14.14757 v 0"
       style="fill:none;fill-opacity:1;stroke:#bb9457;stroke-width:3.21925;stroke-linecap:round;stroke-linejoin:miter;stroke-miterlimit:4;stroke-dasharray:none;stroke-dashoffset:0;stroke-opacity:1;paint-order:normal"
       sodipodi:nodetypes="cscccscscc" />
    <path
       inkscape:connector-curvature="0"
       sodipodi:nodetypes="cccccccscccc"
       id="path4771-6-6-6-7"
       d="m 139.90389,894.34013 c 0,0 -7.40408,-5.31505 -7.33993,-2.31343 0.49145,2.81062 4.83105,1.53432 7.83773,-0.73929 7.63204,-7.43751 -2.17709,-8.25365 -7.06432,-5.91915 -1.22143,0.62336 -2.56434,1.40455 -3.94809,2.32635 -6.15839,4.2107 -7.07563,8.72195 -4.70059,11.49748 4.87892,4.176 12.47602,1.90318 17.11502,0.0876 6.3391,-2.52324 14.16171,-7.72177 21.41032,-18.60211 9.44219,-14.17299 4.18123,-29.51559 -10.76617,-35.48397 -10.76497,-3.95488 -21.3324,-2.69495 -30.76756,1.62841 -14.65836,6.79744 -28.660918,21.3694 -29.708968,36.49091 -0.26048,11.50278 5.89708,21.2432 15.952218,21.85434"
       style="fill:none;fill-opacity:1;stroke:#bb9457;stroke-width:3.00776;stroke-linecap:round;stroke-miterlimit:4;stroke-dasharray:none;stroke-opacity:1" />
    <path
       inkscape:connector-curvature="0"
       sodipodi:nodetypes="ccccccccc"
       id="path4806-7-0-2-6"
       d="m 123.72489,916.62522 -0.26779,-6.63777 -18.21806,-0.0511 c -4.35337,-0.24145 -3.66683,1.42023 -3.63712,5.52571 l 0.10616,14.67608 c -0.49892,4.55121 1.58156,3.77518 4.78445,4.02031 8.93853,0.67968 28.84002,1.82876 45.50107,0.19272 3.63499,-0.17168 3.88117,-0.254 3.93414,-3.88595 l 0.18913,-12.96808"
       style="fill:none;fill-opacity:1;stroke:#bb9457;stroke-width:2.81569;stroke-linecap:round;stroke-linejoin:miter;stroke-miterlimit:4;stroke-dasharray:none;stroke-dashoffset:0;stroke-opacity:1;paint-order:normal" />
    <path
       inkscape:connector-curvature="0"
       id="path234-5-6-6-5"
       d="m 117.41009,895.89048 c 0,0 -13.4191,-1.26312 -6.39413,-15.28861 7.02498,-14.02552 22.38825,-17.78936 22.38825,-17.78936 0,0 14.51602,-5.15548 20.66286,2.2967 3.11986,3.7824 2.89231,8.59357 -5.16204,18.58682"
       style="fill:none;stroke:#bb9457;stroke-width:3.00776;stroke-linecap:round;stroke-miterlimit:4;stroke-dasharray:none;stroke-opacity:1"
       sodipodi:nodetypes="cscsc" />
    <text
       id="text3338-3-2-1-6"
       y="962.50659"
       x="47.938786"
       style="font-style:normal;font-weight:normal;line-height:0%;font-family:sans-serif;letter-spacing:0px;word-spacing:0px;fill:#bb9457;fill-opacity:1;stroke:none;stroke-width:0.2;stroke-linecap:butt;stroke-linejoin:miter;stroke-miterlimit:4;stroke-dasharray:none;stroke-opacity:1"
       xml:space="preserve"><tspan
         style="font-style:normal;font-variant:normal;font-weight:normal;font-stretch:normal;font-size:25.4251px;line-height:125%;font-family:Rockwell;-inkscape-font-specification:Rockwell;letter-spacing:0.0111398px;word-spacing:0.0112204px;fill:#bb9457;fill-opacity:1;stroke-width:0.2;stroke-miterlimit:4;stroke-dasharray:none"
         y="962.50659"
         x="47.938786"
         sodipodi:role="line"
         id="tspan4557-8-9">El Adivinador</tspan></text>
    <rect
       style="fill:#540b0e;fill-opacity:1;stroke:none;stroke-width:2.89394;stroke-linecap:round;stroke-miterlimit:4;stroke-dasharray:none;stroke-opacity:1"
       id="rect4583-36-5-1"
       width="239.00278"
       height="239.00278"
       x="251.53642"
       y="554.08862" />
    <rect
       style="fill:#6f1d1b;fill-opacity:1;stroke:none;stroke-width:2.89394;stroke-linecap:round;stroke-miterlimit:4;stroke-dasharray:none;stroke-opacity:1"
       id="rect4583-36-5-3"
       width="239.00278"
       height="239.00278"
       x="10.000919"
       y="554.04956" />
    <path
       inkscape:connector-curvature="0"
       id="path4769-3-3-0-4-6"
       d="m 147.95398,674.13078 c 4.12793,-0.75856 7.70523,-1.8007 7.33738,-3.10535 -0.83752,-2.97046 -14.06212,-3.79481 -14.06212,-3.79481 0,0 -5.37968,-0.11474 -11.9185,-0.022 -6.57489,0.41925 -14.50684,-0.0338 -20.84734,1.66383 -1.6075,0.45663 -2.44802,1.03259 -2.12914,1.75783 1.83932,4.18325 25.17191,2.99301 25.17191,2.99301 0,0 14.9958,-0.50034 15.87262,-11.55735 0.62123,-7.83371 -6.30444,-12.58017 -8.32655,-14.14757 v 0"
       style="fill:none;fill-opacity:1;stroke:#bb9457;stroke-width:3.21925;stroke-linecap:round;stroke-linejoin:miter;stroke-miterlimit:4;stroke-dasharray:none;stroke-dashoffset:0;stroke-opacity:1;paint-order:normal"
       sodipodi:nodetypes="cscccscscc" />
    <path
       inkscape:connector-curvature="0"
       sodipodi:nodetypes="cccccccscccc"
       id="path4771-6-6-6-7-1"
       d="m 139.12063,647.97671 c 0,0 -7.40408,-5.31505 -7.33993,-2.31343 0.49145,2.81062 4.83105,1.53432 7.83773,-0.73929 7.63204,-7.43751 -2.17709,-8.25365 -7.06432,-5.91915 -1.22143,0.62336 -2.56434,1.40455 -3.94809,2.32635 -6.15839,4.2107 -7.07563,8.72195 -4.70059,11.49748 4.87892,4.176 12.47602,1.90318 17.11502,0.0876 6.3391,-2.52324 14.16171,-7.72177 21.41032,-18.60211 9.44219,-14.17299 4.18123,-29.51559 -10.76617,-35.48397 -10.76497,-3.95488 -21.3324,-2.69495 -30.76756,1.62841 -14.65836,6.79744 -28.660918,21.3694 -29.708968,36.49091 -0.26048,11.50278 5.89708,21.2432 15.952218,21.85434"
       style="fill:none;fill-opacity:1;stroke:#bb9457;stroke-width:3.00776;stroke-linecap:round;stroke-miterlimit:4;stroke-dasharray:none;stroke-opacity:1" />
    <path
       inkscape:connector-curvature="0"
       sodipodi:nodetypes="ccccccccc"
       id="path4806-7-0-2-6-2"
       d="m 122.94163,670.2618 -0.26779,-6.63777 -18.21806,-0.0511 c -4.35337,-0.24145 -3.66683,1.42023 -3.63712,5.52571 l 0.10616,14.67608 c -0.49892,4.55121 1.58156,3.77518 4.78445,4.02031 8.93853,0.67968 28.84002,1.82876 45.50107,0.19272 3.63499,-0.17168 3.88117,-0.254 3.93414,-3.88595 l 0.18913,-12.96808"
       style="fill:none;fill-opacity:1;stroke:#bb9457;stroke-width:2.81569;stroke-linecap:round;stroke-linejoin:miter;stroke-miterlimit:4;stroke-dasharray:none;stroke-dashoffset:0;stroke-opacity:1;paint-order:normal" />
    <path
       inkscape:connector-curvature="0"
       id="path234-5-6-6-5-9"
       d="m 116.62683,649.52706 c 0,0 -13.4191,-1.26312 -6.39413,-15.28861 7.02498,-14.02552 22.38825,-17.78936 22.38825,-17.78936 0,0 14.51602,-5.15548 20.66286,2.2967 3.11986,3.7824 2.89231,8.59357 -5.16204,18.58682"
       style="fill:none;stroke:#bb9457;stroke-width:3.00776;stroke-linecap:round;stroke-miterlimit:4;stroke-dasharray:none;stroke-opacity:1"
       sodipodi:nodetypes="cscsc" />
    <text
       id="text3338-3-2-1-6-3"
       y="716.14319"
       x="47.155525"
       style="font-style:normal;font-weight:normal;line-height:0%;font-family:sans-serif;letter-spacing:0px;word-spacing:0px;fill:#bb9457;fill-opacity:1;stroke:none;stroke-width:0.2;stroke-linecap:butt;stroke-linejoin:miter;stroke-miterlimit:4;stroke-dasharray:none;stroke-opacity:1"
       xml:space="preserve"><tspan
         style="font-style:normal;font-variant:normal;font-weight:normal;font-stretch:normal;font-size:25.4251px;line-height:125%;font-family:Rockwell;-inkscape-font-specification:Rockwell;letter-spacing:0.0111398px;word-spacing:0.0112204px;fill:#bb9457;fill-opacity:1;stroke-width:0.2;stroke-miterlimit:4;stroke-dasharray:none"
         y="716.14319"
         x="47.155525"
         sodipodi:role="line"
         id="tspan4557-8-9-1">El Adivinador</tspan></text>
    <path
       inkscape:connector-curvature="0"
       id="path4769-3-3-0-4-8"
       d="m 389.48949,674.16975 c 4.12793,-0.7586 7.70523,-1.8007 7.33738,-3.1054 -0.83752,-2.9704 -14.06212,-3.7948 -14.06212,-3.7948 0,0 -5.37968,-0.1147 -11.9185,-0.022 -6.57489,0.4193 -14.50684,-0.034 -20.84734,1.6639 -1.6075,0.4566 -2.44802,1.0325 -2.12914,1.7578 1.83932,4.1832 25.17191,2.993 25.17191,2.993 0,0 14.9958,-0.5003 15.87262,-11.5574 0.62123,-7.8337 -6.30444,-12.5801 -8.32655,-14.1475 v 0"
       style="fill:none;fill-opacity:1;stroke:#9e2a2b;stroke-width:3.21925;stroke-linecap:round;stroke-linejoin:miter;stroke-miterlimit:4;stroke-dasharray:none;stroke-dashoffset:0;stroke-opacity:1;paint-order:normal"
       sodipodi:nodetypes="cscccscscc" />
    <path
       inkscape:connector-curvature="0"
       sodipodi:nodetypes="cccccccscccc"
       id="path4771-6-6-6-7-7"
       d="m 380.65614,648.01565 c 0,0 -7.40408,-5.315 -7.33993,-2.3134 0.49145,2.8106 4.83105,1.5343 7.83773,-0.7393 7.63204,-7.4375 -2.17709,-8.2537 -7.06432,-5.9192 -1.22143,0.6234 -2.56434,1.4046 -3.94809,2.3264 -6.15839,4.2107 -7.07563,8.7219 -4.70059,11.4975 4.87892,4.176 12.47602,1.9032 17.11502,0.088 6.3391,-2.5233 14.16171,-7.7218 21.41032,-18.6021 9.44219,-14.173 4.18123,-29.5156 -10.76617,-35.484 -10.76497,-3.9549 -21.3324,-2.695 -30.76756,1.6284 -14.65836,6.7974 -28.66092,21.3694 -29.70897,36.4909 -0.26048,11.5028 5.89708,21.2432 15.95222,21.8544"
       style="fill:none;fill-opacity:1;stroke:#9e2a2b;stroke-width:3.00776;stroke-linecap:round;stroke-miterlimit:4;stroke-dasharray:none;stroke-opacity:1" />
    <path
       inkscape:connector-curvature="0"
       sodipodi:nodetypes="ccccccccc"
       id="path4806-7-0-2-6-9"
       d="m 364.47714,670.30075 -0.26779,-6.6378 -18.21806,-0.051 c -4.35337,-0.2414 -3.66683,1.4203 -3.63712,5.5257 l 0.10616,14.6761 c -0.49892,4.5512 1.58156,3.7752 4.78445,4.0203 8.93853,0.6797 28.84002,1.8288 45.50107,0.1928 3.63499,-0.1717 3.88117,-0.254 3.93414,-3.886 l 0.18913,-12.9681"
       style="fill:none;fill-opacity:1;stroke:#9e2a2b;stroke-width:2.81569;stroke-linecap:round;stroke-linejoin:miter;stroke-miterlimit:4;stroke-dasharray:none;stroke-dashoffset:0;stroke-opacity:1;paint-order:normal" />
    <path
       inkscape:connector-curvature="0"
       id="path234-5-6-6-5-2"
       d="m 358.16234,649.56605 c 0,0 -13.4191,-1.2632 -6.39413,-15.2886 7.02498,-14.0256 22.38825,-17.7894 22.38825,-17.7894 0,0 14.51602,-5.1555 20.66286,2.2967 3.11986,3.7824 2.89231,8.5936 -5.16204,18.5868"
       style="fill:none;stroke:#9e2a2b;stroke-width:3.00776;stroke-linecap:round;stroke-miterlimit:4;stroke-dasharray:none;stroke-opacity:1"
       sodipodi:nodetypes="cscsc" />
    <text
       id="text3338-3-2-1-6-0"
       y="716.18225"
       x="288.69107"
       style="font-style:normal;font-weight:normal;line-height:0%;font-family:sans-serif;letter-spacing:0px;word-spacing:0px;fill:#9e2a2b;fill-opacity:1;stroke:none;stroke-width:0.2;stroke-linecap:butt;stroke-linejoin:miter;stroke-miterlimit:4;stroke-dasharray:none;stroke-opacity:1"
       xml:space="preserve"><tspan
         style="font-style:normal;font-variant:normal;font-weight:normal;font-stretch:normal;font-size:25.4251px;line-height:125%;font-family:Rockwell;-inkscape-font-specification:Rockwell;letter-spacing:0.0111398px;word-spacing:0.0112204px;fill:#9e2a2b;fill-opacity:1;stroke-width:0.2;stroke-miterlimit:4;stroke-dasharray:none"
         y="716.18225"
         x="288.69107"
         sodipodi:role="line"
         id="tspan4557-8-9-2">El Adivinador</tspan></text>
    <rect
       style="opacity:1;fill:#432818;fill-opacity:1;stroke:none;stroke-width:2.89394;stroke-linecap:round;stroke-miterlimit:4;stroke-dasharray:none;stroke-opacity:1"
       id="rect4583-3-2-2-7"
       width="239.00278"
       height="239.00278"
       x="495.41486"
       y="800.42657" />
    <path
       inkscape:connector-curvature="0"
       id="path4769-3-3-6-9-8-4"
       d="m 633.36791,920.50779 c 4.12793,-0.75856 7.70523,-1.8007 7.33738,-3.10535 -0.83752,-2.97046 -14.06212,-3.79481 -14.06212,-3.79481 0,0 -5.37968,-0.11474 -11.9185,-0.022 -6.57489,0.41925 -14.50684,-0.0338 -20.84735,1.66383 -1.6075,0.45663 -2.44802,1.03259 -2.12914,1.75783 1.83932,4.18325 25.17192,2.99301 25.17192,2.99301 0,0 14.9958,-0.50034 15.87262,-11.55735 0.62123,-7.83371 -6.30444,-12.58017 -8.32655,-14.14757 v 0"
       style="fill:none;fill-opacity:1;stroke:#99582a;stroke-width:3.21925;stroke-linecap:round;stroke-linejoin:miter;stroke-miterlimit:4;stroke-dasharray:none;stroke-dashoffset:0;stroke-opacity:1;paint-order:normal"
       sodipodi:nodetypes="cscccscscc" />
    <path
       inkscape:connector-curvature="0"
       sodipodi:nodetypes="cccccccscccc"
       id="path4771-6-6-7-1-9-4"
       d="m 624.53456,894.35372 c 0,0 -7.40408,-5.31505 -7.33993,-2.31343 0.49145,2.81062 4.83105,1.53432 7.83773,-0.73929 7.63204,-7.43751 -2.17709,-8.25365 -7.06432,-5.91915 -1.22143,0.62336 -2.56434,1.40455 -3.94809,2.32635 -6.15839,4.2107 -7.07563,8.72195 -4.70059,11.49748 4.87892,4.176 12.47602,1.90318 17.11502,0.0876 6.3391,-2.52324 14.16171,-7.72177 21.41032,-18.60211 9.44219,-14.17299 4.18123,-29.51559 -10.76617,-35.48397 -10.76497,-3.95488 -21.3324,-2.69495 -30.76756,1.62841 -14.65837,6.79744 -28.66092,21.3694 -29.70897,36.49091 -0.26048,11.50278 5.89708,21.2432 15.95221,21.85434"
       style="fill:none;fill-opacity:1;stroke:#99582a;stroke-width:3.00776;stroke-linecap:round;stroke-miterlimit:4;stroke-dasharray:none;stroke-opacity:1" />
    <path
       inkscape:connector-curvature="0"
       sodipodi:nodetypes="ccccccccc"
       id="path4806-7-0-5-2-7-3"
       d="m 608.35556,916.63881 -0.26779,-6.63777 -18.21807,-0.0511 c -4.35337,-0.24145 -3.66683,1.42023 -3.63712,5.52571 l 0.10616,14.67608 c -0.49892,4.55121 1.58156,3.77518 4.78445,4.02031 8.93854,0.67968 28.84003,1.82876 45.50108,0.19272 3.63499,-0.17168 3.88117,-0.254 3.93414,-3.88595 l 0.18913,-12.96808"
       style="fill:none;fill-opacity:1;stroke:#99582a;stroke-width:2.81569;stroke-linecap:round;stroke-linejoin:miter;stroke-miterlimit:4;stroke-dasharray:none;stroke-dashoffset:0;stroke-opacity:1;paint-order:normal" />
    <path
       inkscape:connector-curvature="0"
       id="path234-5-6-3-7-3-0"
       d="m 602.04076,895.90407 c 0,0 -13.41911,-1.26312 -6.39413,-15.28861 7.02498,-14.02552 22.38825,-17.78936 22.38825,-17.78936 0,0 14.51602,-5.15548 20.66286,2.2967 3.11986,3.7824 2.89231,8.59357 -5.16204,18.58682"
       style="fill:none;stroke:#99582a;stroke-width:3.00776;stroke-linecap:round;stroke-miterlimit:4;stroke-dasharray:none;stroke-opacity:1"
       sodipodi:nodetypes="cscsc" />
    <text
       id="text3338-3-2-5-0-6-7"
       y="962.5202"
       x="532.56946"
       style="font-style:normal;font-weight:normal;line-height:0%;font-family:sans-serif;letter-spacing:0px;word-spacing:0px;fill:#99582a;fill-opacity:1;stroke:none;stroke-width:0.2;stroke-linecap:butt;stroke-linejoin:miter;stroke-miterlimit:4;stroke-dasharray:none;stroke-opacity:1"
       xml:space="preserve"><tspan
         style="font-style:normal;font-variant:normal;font-weight:normal;font-stretch:normal;font-size:25.4251px;line-height:125%;font-family:Rockwell;-inkscape-font-specification:Rockwell;letter-spacing:0.0111398px;word-spacing:0.0112204px;fill:#99582a;fill-opacity:1;stroke-width:0.2;stroke-miterlimit:4;stroke-dasharray:none"
         y="962.5202"
         x="532.56946"
         sodipodi:role="line"
         id="tspan4557-6-9-1-8">El Adivinador</tspan></text>
    <path
       inkscape:connector-curvature="0"
       id="path4769-3-3-0-8"
       d="m 641.87635,428.94718 c 4.12793,-0.75856 7.70523,-1.8007 7.33738,-3.10535 -0.83752,-2.97046 -14.06212,-3.79481 -14.06212,-3.79481 0,0 -5.37968,-0.11474 -11.9185,-0.022 -6.57489,0.41925 -14.50684,-0.0338 -20.84734,1.66383 -1.6075,0.45663 -2.44802,1.03259 -2.12914,1.75783 1.83932,4.18325 25.17191,2.99301 25.17191,2.99301 0,0 14.9958,-0.50034 15.87262,-11.55735 0.62123,-7.83371 -6.30444,-12.58016 -8.32655,-14.14756 v 0"
       style="fill:none;fill-opacity:1;stroke:#410005;stroke-width:3.21925;stroke-linecap:round;stroke-linejoin:miter;stroke-miterlimit:4;stroke-dasharray:none;stroke-dashoffset:0;stroke-opacity:1;paint-order:normal"
       sodipodi:nodetypes="cscccscscc" />
    <path
       inkscape:connector-curvature="0"
       sodipodi:nodetypes="cccccccscccc"
       id="path4771-6-6-6-8"
       d="m 633.043,402.79312 c 0,0 -7.40408,-5.31505 -7.33993,-2.31343 0.49145,2.81062 4.83105,1.53432 7.83773,-0.73929 7.63204,-7.43751 -2.17709,-8.25365 -7.06432,-5.91915 -1.22143,0.62336 -2.56434,1.40455 -3.94809,2.32635 -6.15839,4.2107 -7.07563,8.72195 -4.70059,11.49748 4.87892,4.17599 12.47602,1.90317 17.11502,0.0876 6.3391,-2.52324 14.16171,-7.72177 21.41032,-18.60211 9.44219,-14.17299 4.18123,-29.51559 -10.76617,-35.48397 -10.76497,-3.95488 -21.3324,-2.69495 -30.76756,1.62841 -14.65836,6.79744 -28.66092,21.3694 -29.70897,36.49091 -0.26048,11.50278 5.89708,21.24319 15.95222,21.85433"
       style="fill:none;fill-opacity:1;stroke:#410005;stroke-width:3.00776;stroke-linecap:round;stroke-miterlimit:4;stroke-dasharray:none;stroke-opacity:1" />
    <path
       inkscape:connector-curvature="0"
       sodipodi:nodetypes="ccccccccc"
       id="path4806-7-0-2-4"
       d="m 616.864,425.0782 -0.26779,-6.63777 -18.21806,-0.0511 c -4.35337,-0.24145 -3.66683,1.42023 -3.63712,5.52571 l 0.10616,14.67608 c -0.49892,4.55121 1.58156,3.77518 4.78445,4.02031 8.93853,0.67968 28.84002,1.82876 45.50107,0.19272 3.63499,-0.17168 3.88117,-0.254 3.93414,-3.88595 l 0.18913,-12.96808"
       style="fill:none;fill-opacity:1;stroke:#410005;stroke-width:2.81569;stroke-linecap:round;stroke-linejoin:miter;stroke-miterlimit:4;stroke-dasharray:none;stroke-dashoffset:0;stroke-opacity:1;paint-order:normal" />
    <path
       inkscape:connector-curvature="0"
       id="path234-5-6-6-3"
       d="m 610.5492,404.34347 c 0,0 -13.4191,-1.26312 -6.39413,-15.28861 7.02498,-14.02552 22.38825,-17.78936 22.38825,-17.78936 0,0 14.51602,-5.15548 20.66286,2.2967 3.11986,3.7824 2.89231,8.59357 -5.16204,18.58682"
       style="fill:none;stroke:#410005;stroke-width:3.00776;stroke-linecap:round;stroke-miterlimit:4;stroke-dasharray:none;stroke-opacity:1"
       sodipodi:nodetypes="cscsc" />
    <text
       id="text3338-3-2-1-1"
       y="470.95956"
       x="541.07794"
       style="font-style:normal;font-weight:normal;line-height:0%;font-family:sans-serif;letter-spacing:0px;word-spacing:0px;fill:#410005;fill-opacity:1;stroke:none;stroke-width:0.2;stroke-linecap:butt;stroke-linejoin:miter;stroke-miterlimit:4;stroke-dasharray:none;stroke-opacity:1"
       xml:space="preserve"><tspan
         style="font-style:normal;font-variant:normal;font-weight:normal;font-stretch:normal;font-size:25.4251px;line-height:125%;font-family:Rockwell;-inkscape-font-specification:Rockwell;letter-spacing:0.0111398px;word-spacing:0.0112204px;fill:#410005;fill-opacity:1;stroke-width:0.2;stroke-miterlimit:4;stroke-dasharray:none"
         y="470.95956"
         x="541.07794"
         sodipodi:role="line"
         id="tspan4557-8-4">El Adivinador</tspan></text>
  </g>
</svg>
