<?xml version="1.0" encoding="UTF-8" standalone="no"?>
<!-- Created with Inkscape (http://www.inkscape.org/) -->

<svg
   width="156.37904mm"
   height="182.07417mm"
   viewBox="0 0 156.37904 182.07417"
   version="1.1"
   id="svg5"
   xml:space="preserve"
   xmlns="http://www.w3.org/2000/svg"
   xmlns:svg="http://www.w3.org/2000/svg"><defs
     id="defs2"><linearGradient
       id="linearGradient1052"><stop
         style="stop-color:#808080;stop-opacity:1;"
         offset="0"
         id="stop1050" /></linearGradient></defs><g
     id="layer1"
     transform="translate(-25.296145,-9.8474137)"><path
       style="fill:none;fill-opacity:1;stroke:#000000;stroke-width:1.4;stroke-dasharray:none;stroke-opacity:1"
       d="m 122.11306,160.66286 c 0,0 43.54792,-3.57387 41.68841,-10.16902 -1.85952,-6.59515 -31.22142,-8.42538 -31.22142,-8.42538 0,0 -81.559166,-1.7397 -77.475459,7.54814 4.083708,9.28784 55.887909,6.64522 55.887909,6.64522 0,0 33.29436,-1.11092 35.2411,-25.66019 1.37924,-17.39276 -13.99741,-27.93108 -18.48699,-31.411088 v 0"
       id="path4769" /><path
       style="fill:none;fill-opacity:1;stroke:#000000;stroke-width:1.21191;stroke-dasharray:none;stroke-opacity:1"
       d="m 127.90493,99.355143 c 0,0 -10.4604,-9.353776 -10.36477,-4.880801 0.0956,4.472974 3.60278,5.647178 15.6811,-4.495182 0,0 -0.17534,-14.389602 -20.98504,-0.527089 -20.809691,13.862509 -1.29998,20.798719 -1.29998,20.798719 -0.048,-0.24821 27.62004,4.89705 51.70513,-31.255273 18.36984,-27.573591 -0.3238,-62.989937 -40.0089,-61.541585 -21.09976,0.770059 -48.619229,10.140755 -67.212489,40.671292 -2.280684,2.470088 -4.371529,6.092563 -6.260461,11.659516 -3.468655,10.222626 -3.849271,24.671727 6.499464,35.00852 14.585905,14.56907 24.508422,10.72975 24.589294,10.69646"
       id="path4771" /><path
       style="fill:none;fill-opacity:1;stroke:#000000;stroke-width:1.4;stroke-dasharray:none;stroke-opacity:1"
       d="m 90.054474,147.24109 -0.500589,-9.31021 -40.578574,-1.02618 0.357947,49.97278 c 0,0 64.605002,8.40648 115.025292,1.82356 l 0.23363,-37.78436"
       id="path4806" /><path
       style="fill:none;stroke:#000000;stroke-width:1.08873"
       d="m 90.974989,102.70292 c 0,0 -21.23703,-1.99899 -10.11933,-24.195716 11.117703,-22.196732 35.431561,-28.153388 35.431561,-28.153388 0,0 51.4163,-14.807166 23.93059,38.833859"
       id="path234" /></g></svg>
