<?xml version="1.0" encoding="UTF-8" standalone="no"?>
<!-- Created with Inkscape (http://www.inkscape.org/) -->

<svg
   width="124.14475mm"
   height="177.63177mm"
   viewBox="0 0 124.14475 177.63177"
   version="1.1"
   id="svg5"
   xml:space="preserve"
   xmlns="http://www.w3.org/2000/svg"
   xmlns:svg="http://www.w3.org/2000/svg"><defs
     id="defs2"><linearGradient
       id="linearGradient1052"><stop
         style="stop-color:#808080;stop-opacity:1;"
         offset="0"
         id="stop1050" /></linearGradient></defs><g
     id="layer1"
     transform="translate(-45.804005,-14.289802)"><path
       style="fill:none;fill-opacity:1;stroke:#000000;stroke-width:1.4;stroke-dasharray:none;stroke-opacity:1"
       d="m 122.11306,160.66286 c 0,0 43.54792,-3.57387 41.68841,-10.16902 -1.85952,-6.59515 -31.22142,-8.42538 -31.22142,-8.42538 0,0 -81.559166,-1.7397 -77.475459,7.54814 4.083708,9.28784 55.887909,6.64522 55.887909,6.64522 0,0 33.29436,-1.11092 35.2411,-25.66019 1.37924,-17.39276 -13.99741,-27.93108 -18.48699,-31.411088 v 0"
       id="path4769" /><path
       style="fill:none;fill-opacity:1;stroke:#000000;stroke-width:1.21191;stroke-dasharray:none;stroke-opacity:1"
       d="m 127.90493,99.355143 c 0,0 -10.4604,-9.353776 -10.36477,-4.880801 0.0956,4.472974 3.60278,5.647178 15.6811,-4.495182 0,0 -0.17534,-14.389602 -20.98504,-0.527089 -20.809691,13.862509 -1.29998,20.798719 -1.29998,20.798719 -0.048,-0.24821 27.62003,4.89704 51.70513,-31.255273 C 189.6195,38.500661 131.46121,-30.376194 54.324689,57.498091 c 0.814846,-0.474347 -17.424699,30.558433 -1.1048,46.859499 14.585899,14.56908 26.947517,11.16542 27.028389,11.13213"
       id="path4771" /><path
       style="fill:none;fill-opacity:1;stroke:#000000;stroke-width:1.4;stroke-dasharray:none;stroke-opacity:1"
       d="m 90.054474,147.24109 -0.500589,-9.31021 -40.578574,-1.02618 0.357947,49.97278 c 0,0 64.605002,8.40648 115.025292,1.82356 l 0.23363,-37.78436"
       id="path4806" /><path
       style="fill:none;stroke:#000000;stroke-width:1.16561"
       d="m 88.093595,102.66465 c 0,0 -22.736498,-2.14013 -10.833818,-25.904081 11.902681,-23.763961 37.933253,-30.141195 37.933253,-30.141195 0,0 55.04661,-15.852644 25.62023,41.575774"
       id="path234" /></g></svg>
