<?xml version="1.0" encoding="UTF-8" standalone="no"?>
<!-- Created with Inkscape (http://www.inkscape.org/) -->

<svg
   width="139.61745mm"
   height="175.87102mm"
   viewBox="0 0 139.61744 175.87101"
   version="1.1"
   id="svg5"
   xml:space="preserve"
   sodipodi:docname="el_Adivinador6_DIGITAL.svg"
   inkscape:version="1.2.2 (b0a8486541, 2022-12-01)"
   xmlns:inkscape="http://www.inkscape.org/namespaces/inkscape"
   xmlns:sodipodi="http://sodipodi.sourceforge.net/DTD/sodipodi-0.dtd"
   xmlns="http://www.w3.org/2000/svg"
   xmlns:svg="http://www.w3.org/2000/svg"><sodipodi:namedview
     id="namedview11"
     pagecolor="#ffffff"
     bordercolor="#000000"
     borderopacity="0.25"
     inkscape:showpageshadow="2"
     inkscape:pageopacity="0.0"
     inkscape:pagecheckerboard="0"
     inkscape:deskcolor="#d1d1d1"
     inkscape:document-units="mm"
     showgrid="false"
     inkscape:zoom="0.92370266"
     inkscape:cx="250.08047"
     inkscape:cy="348.05573"
     inkscape:window-width="1920"
     inkscape:window-height="1023"
     inkscape:window-x="0"
     inkscape:window-y="28"
     inkscape:window-maximized="1"
     inkscape:current-layer="layer1" /><defs
     id="defs2"><linearGradient
       id="linearGradient1052"><stop
         style="stop-color:#808080;stop-opacity:1;"
         offset="0"
         id="stop1050" /></linearGradient></defs><g
     id="layer1"
     transform="translate(-36.201923,-10.556969)"
     style="stroke-width:1.4;stroke-dasharray:none"><path
       style="fill:none;fill-opacity:1;stroke:#000000;stroke-width:1.4;stroke-linecap:round;stroke-linejoin:miter;stroke-dasharray:none;stroke-dashoffset:0;stroke-opacity:1;paint-order:normal"
       d="m 120.6232,157.4826 c 0,0 40.38208,-3.31407 38.65774,-9.42976 -1.72434,-6.1157 -28.95168,-7.81288 -28.95168,-7.81288 0,0 -75.629978,-1.61322 -71.843148,6.99942 3.78683,8.61263 51.824968,6.16212 51.824968,6.16212 0,0 30.87392,-1.03015 32.67915,-23.79474 1.27897,-16.12834 -12.97983,-25.90055 -17.14303,-29.12757 v 0"
       id="path4769" /><path
       style="fill:none;fill-opacity:1;stroke:#000000;stroke-width:1.4;stroke-linecap:round;stroke-dasharray:none;stroke-opacity:1"
       d="m 126.74663,101.13796 c 0,0 -12.77809,-9.172784 -12.66738,-3.99253 0.8483,4.85062 8.33753,2.647961 13.52649,-1.275886 13.17152,-12.835796 -3.75724,-14.244301 -12.19173,-10.215375 -2.10794,1.075838 -4.42558,2.423994 -6.81367,4.014839 -10.628256,7.266921 -12.211247,15.052532 -8.11238,19.842572 8.42016,7.20702 21.53135,3.28456 29.53743,0.15131 10.94012,-4.35469 24.44053,-13.3264 36.95031,-32.103874 C 183.27122,53.099058 174.19174,26.620503 148.39524,16.320137 129.81689,9.4947562 111.57943,11.669151 95.296056,19.130505 87.152824,22.912758 78.910014,27.977491 71.271541,33.88365 55.924358,45.408023 44.879029,64.293843 44.023768,82.10717 c -0.449632,19.85172 10.177269,36.6619 27.530612,37.71661"
       id="path4771"
       sodipodi:nodetypes="cccccccsccccc" /><path
       style="fill:none;fill-opacity:1;stroke:#000000;stroke-width:1.4;stroke-linecap:round;stroke-linejoin:miter;stroke-dasharray:none;stroke-dashoffset:0;stroke-opacity:1;paint-order:normal"
       d="m 90.735443,145.02368 -0.206792,-8.66226 -37.628592,-0.95158 0.331925,46.33986 c 0,0 59.375286,7.87733 106.130126,1.77298 l 0.007,-35.24695"
       id="path4806"
       sodipodi:nodetypes="cccccc" /><path
       style="fill:none;stroke:#000000;stroke-width:1.37163;stroke-linecap:round;stroke-dasharray:none"
       d="m 87.92644,103.81361 c 0,0 -23.158929,-2.1799 -11.035104,-26.385365 12.123828,-24.205482 38.638044,-30.701201 38.638044,-30.701201 0,0 28.71585,-6.86196 35.25324,8.848836 3.25082,7.812446 0.92057,14.830923 -12.97972,32.077466"
       id="path234" /></g></svg>
