<?xml version="1.0" encoding="UTF-8" standalone="no"?>
<!-- Created with Inkscape (http://www.inkscape.org/) -->

<svg
   width="156.37904mm"
   height="182.07417mm"
   viewBox="0 0 156.37904 182.07417"
   version="1.1"
   id="svg5"
   xml:space="preserve"
   inkscape:export-filename="el_Adivinador5_DIGITAL.svg"
   inkscape:export-xdpi="162.38217"
   inkscape:export-ydpi="162.38217"
   sodipodi:docname="el_Adivinador5_DIGITAL.svg"
   inkscape:version="1.2.2 (b0a8486541, 2022-12-01)"
   xmlns:inkscape="http://www.inkscape.org/namespaces/inkscape"
   xmlns:sodipodi="http://sodipodi.sourceforge.net/DTD/sodipodi-0.dtd"
   xmlns="http://www.w3.org/2000/svg"
   xmlns:svg="http://www.w3.org/2000/svg"><sodipodi:namedview
     id="namedview7"
     pagecolor="#ffffff"
     bordercolor="#000000"
     borderopacity="0.25"
     inkscape:showpageshadow="2"
     inkscape:pageopacity="0.0"
     inkscape:pagecheckerboard="0"
     inkscape:deskcolor="#d1d1d1"
     inkscape:document-units="mm"
     showgrid="false"
     showguides="false"
     inkscape:zoom="1.6514684"
     inkscape:cx="214.35469"
     inkscape:cy="473.82075"
     inkscape:window-width="1920"
     inkscape:window-height="1023"
     inkscape:window-x="0"
     inkscape:window-y="28"
     inkscape:window-maximized="1"
     inkscape:current-layer="layer1"><sodipodi:guide
       position="202.78223,194.36094"
       orientation="0,-1"
       id="guide4808"
       inkscape:locked="false" /></sodipodi:namedview><defs
     id="defs2"><linearGradient
       id="linearGradient1052"
       inkscape:swatch="solid"><stop
         style="stop-color:#808080;stop-opacity:1;"
         offset="0"
         id="stop1050" /></linearGradient></defs><g
     inkscape:label="Capa 1"
     inkscape:groupmode="layer"
     id="layer1"
     transform="translate(-25.296145,-9.8474137)"><path
       style="fill:none;fill-opacity:1;stroke:#000000;stroke-width:1.36828;stroke-dasharray:none;stroke-opacity:1"
       d="m 120.7085,160.82583 c 0,0 42.56145,-3.49292 40.74405,-9.93867 -1.81739,-6.44576 -30.51417,-8.23453 -30.51417,-8.23453 0,0 -79.71165,-1.70029 -75.720449,7.37717 3.991202,9.07744 54.621909,6.49468 54.621909,6.49468 0,0 32.54016,-1.08575 34.44281,-25.07892 1.34799,-16.99877 -13.68034,-27.29838 -18.06822,-30.69955 v 0"
       id="path4769"
       sodipodi:nodetypes="cscscsc" /><path
       style="fill:none;fill-opacity:1;stroke:#000000;stroke-width:1.40354;stroke-dasharray:none;stroke-opacity:1"
       d="m 126.74663,101.13796 c 0,0 -12.77809,-9.172784 -12.66738,-3.99253 1.37544,7.86485 20.20977,-2.81321 18.38959,-9.305295 -1.22847,-3.939827 -5.92485,-10.12442 -23.8685,1.828853 -15.710323,10.741712 -11.656979,22.616752 1.29707,24.274932 7.49439,-0.47269 33.97565,-1.70729 57.07829,-36.384904 C 188.25022,45.625414 166.21987,9.6377767 120.25966,11.315143 67.74005,13.47374 19.414634,79.652846 43.076961,107.43597 c 16.892268,16.87277 28.38376,12.42637 28.477419,12.38781"
       id="path4771"
       sodipodi:nodetypes="cccccsccc" /><path
       style="fill:none;fill-opacity:1;stroke:#000000;stroke-width:1.36828;stroke-dasharray:none;stroke-opacity:1"
       d="m 89.376113,147.70809 -0.489249,-9.09931 -39.65937,-1.00294 0.349839,48.84078 c 0,0 63.141537,8.21605 112.419687,1.78225 l 0.22834,-36.92845"
       id="path4806" /><path
       style="fill:none;stroke:#000000;stroke-width:1.21181"
       d="m 86.58543,105.03952 c 0,0 -23.637983,-2.22499 -11.263371,-26.931162 12.374615,-24.706184 39.437291,-31.33627 39.437291,-31.33627 0,0 57.22917,-16.481191 26.63605,43.224223"
       id="path234" /><path
       style="fill:none;fill-opacity:1;stroke:#000000;stroke-width:1.36828;stroke-dasharray:none;stroke-opacity:1"
       d="m 120.7085,160.82583 c 0,0 42.56145,-3.49292 40.74405,-9.93867 -1.81739,-6.44576 -30.51417,-8.23453 -30.51417,-8.23453 0,0 -79.71165,-1.70029 -75.720449,7.37717 3.991202,9.07744 54.621909,6.49468 54.621909,6.49468 0,0 32.54016,-1.08575 34.44281,-25.07892 1.34799,-16.99877 -13.68034,-27.29838 -18.06822,-30.69955 v 0"
       id="path334"
       sodipodi:nodetypes="cscscsc" /><path
       style="fill:none;fill-opacity:1;stroke:#000000;stroke-width:1.40354;stroke-dasharray:none;stroke-opacity:1"
       d="m 126.74663,101.13796 c 0,0 -12.77809,-9.172784 -12.66738,-3.99253 1.37544,7.86485 20.20977,-2.81321 18.38959,-9.305295 -1.22847,-3.939827 -5.92485,-10.12442 -23.8685,1.828853 -15.710323,10.741712 -11.656979,22.616752 1.29707,24.274932 7.49439,-0.47269 33.97565,-1.70729 57.07829,-36.384904 C 188.25022,45.625414 166.21987,9.6377767 120.25966,11.315143 67.74005,13.47374 19.414634,79.652846 43.076961,107.43597 c 16.892268,16.87277 28.38376,12.42637 28.477419,12.38781"
       id="path336"
       sodipodi:nodetypes="cccccsccc" /><path
       style="fill:none;fill-opacity:1;stroke:#000000;stroke-width:1.36828;stroke-dasharray:none;stroke-opacity:1"
       d="m 89.376113,147.70809 -0.489249,-9.09931 -39.65937,-1.00294 0.349839,48.84078 c 0,0 63.141537,8.21605 112.419687,1.78225 l 0.22834,-36.92845"
       id="path338" /><path
       style="fill:none;stroke:#000000;stroke-width:1.21181"
       d="m 86.58543,105.03952 c 0,0 -23.637983,-2.22499 -11.263371,-26.931162 12.374615,-24.706184 39.437291,-31.33627 39.437291,-31.33627 0,0 57.22917,-16.481191 26.63605,43.224223"
       id="path340" /></g></svg>
