<?xml version="1.0" encoding="UTF-8" standalone="no"?>
<!-- Created with Inkscape (http://www.inkscape.org/) -->

<svg
   width="137.25827mm"
   height="167.56285mm"
   viewBox="0 0 137.25826 167.56284"
   version="1.1"
   id="svg5"
   xml:space="preserve"
   sodipodi:docname="el_Adivinador7_DIGITAL.svg"
   inkscape:version="1.2.2 (b0a8486541, 2022-12-01)"
   inkscape:export-filename="el_Adivinador7_DIGITAL.svg"
   inkscape:export-xdpi="96"
   inkscape:export-ydpi="96"
   xmlns:inkscape="http://www.inkscape.org/namespaces/inkscape"
   xmlns:sodipodi="http://sodipodi.sourceforge.net/DTD/sodipodi-0.dtd"
   xmlns="http://www.w3.org/2000/svg"
   xmlns:svg="http://www.w3.org/2000/svg"><sodipodi:namedview
     id="namedview11"
     pagecolor="#ffffff"
     bordercolor="#000000"
     borderopacity="0.25"
     inkscape:showpageshadow="2"
     inkscape:pageopacity="0.0"
     inkscape:pagecheckerboard="0"
     inkscape:deskcolor="#d1d1d1"
     inkscape:document-units="mm"
     showgrid="false"
     inkscape:zoom="1.0458444"
     inkscape:cx="213.70291"
     inkscape:cy="368.60167"
     inkscape:window-width="1920"
     inkscape:window-height="1023"
     inkscape:window-x="0"
     inkscape:window-y="28"
     inkscape:window-maximized="1"
     inkscape:current-layer="layer1" /><defs
     id="defs2" /><g
     id="layer1"
     transform="translate(-37.789649,-12.47137)"
     style="stroke-width:1.4;stroke-dasharray:none"><path
       style="fill:none;fill-opacity:1;stroke:#000000;stroke-width:1.45001;stroke-linecap:round;stroke-linejoin:miter;stroke-dasharray:none;stroke-dashoffset:0;stroke-opacity:1;paint-order:normal"
       d="m 119.54866,154.6854 c 0,0 35.05919,-2.87723 33.56216,-8.18679 -1.49706,-5.30958 -25.13548,-6.78305 -25.13548,-6.78305 0,0 -65.660966,-1.40058 -62.37329,6.07681 3.287679,7.47737 44.99375,5.34988 44.99375,5.34988 0,0 26.80435,-0.89436 28.37163,-20.65829 1.11037,-14.00242 -11.26893,-22.48653 -14.88336,-25.28818 v 0"
       id="path4769" /><path
       style="fill:none;fill-opacity:1;stroke:#000000;stroke-width:1.45001;stroke-linecap:round;stroke-dasharray:none;stroke-opacity:1"
       d="m 124.2063,105.29997 c 0,0 -13.23447,-9.5004 -13.11981,-4.13512 0.87859,5.02386 8.63531,2.74253 14.0096,-1.321463 13.64195,-13.294241 -3.89143,-14.753053 -12.62717,-10.580229 -2.18323,1.114263 -4.58364,2.510569 -7.05703,4.158234 -11.007855,7.526468 -12.647384,15.590148 -8.402122,20.551268 8.720892,7.46443 22.300362,3.40187 30.592392,0.15671 11.33086,-4.51021 25.31345,-13.80236 38.27003,-33.250492 16.87754,-25.333573 7.47377,-52.757838 -19.24408,-63.426093 -19.2419,-7.069156 -38.13072,-4.817101 -54.99568,2.910744 -8.434076,3.91734 -16.971288,9.162966 -24.882577,15.280069 -15.895325,11.935979 -27.33515,31.496327 -28.220957,49.945876 -0.465691,20.560746 10.540761,37.971316 28.513898,39.063706"
       id="path4771"
       sodipodi:nodetypes="cccccccsccccc" /><path
       style="fill:none;fill-opacity:1;stroke:#000000;stroke-width:1.45001;stroke-linecap:round;stroke-linejoin:miter;stroke-dasharray:none;stroke-dashoffset:0;stroke-opacity:1;paint-order:normal"
       d="m 93.600504,143.86874 -0.179532,-7.52048 -32.66866,-0.82615 0.288172,40.23167 c 0,0 51.548846,6.839 92.140796,1.53928 l 0.006,-30.60094"
       id="path4806"
       sodipodi:nodetypes="cccccc" /><path
       style="fill:none;stroke:#000000;stroke-width:1.45001;stroke-linecap:round;stroke-dasharray:none"
       d="m 83.9996,108.07118 c 0,0 -23.986076,-2.25775 -11.429234,-27.327744 12.556843,-25.070007 40.018044,-31.797728 40.018044,-31.797728 0,0 29.74147,-7.107042 36.51235,9.164882 3.36692,8.091477 0.95344,15.360626 -13.44331,33.223148"
       id="path234" /></g></svg>
