<?xml version="1.0" encoding="UTF-8" standalone="no"?>
<!-- Created with Inkscape (http://www.inkscape.org/) -->

<svg
   width="156.37904mm"
   height="182.07417mm"
   viewBox="0 0 156.37904 182.07417"
   version="1.1"
   id="svg5"
   xml:space="preserve"
   inkscape:export-filename="bitmap.svg"
   inkscape:export-xdpi="162.38217"
   inkscape:export-ydpi="162.38217"
   xmlns:inkscape="http://www.inkscape.org/namespaces/inkscape"
   xmlns:sodipodi="http://sodipodi.sourceforge.net/DTD/sodipodi-0.dtd"
   xmlns="http://www.w3.org/2000/svg"
   xmlns:svg="http://www.w3.org/2000/svg"><sodipodi:namedview
     id="namedview7"
     pagecolor="#ffffff"
     bordercolor="#000000"
     borderopacity="0.25"
     inkscape:showpageshadow="2"
     inkscape:pageopacity="0.0"
     inkscape:pagecheckerboard="0"
     inkscape:deskcolor="#d1d1d1"
     inkscape:document-units="mm"
     showgrid="false"
     showguides="true"><sodipodi:guide
       position="202.78223,194.36094"
       orientation="0,-1"
       id="guide4808"
       inkscape:locked="false" /></sodipodi:namedview><defs
     id="defs2"><linearGradient
       id="linearGradient1052"
       inkscape:swatch="solid"><stop
         style="stop-color:#808080;stop-opacity:1;"
         offset="0"
         id="stop1050" /></linearGradient></defs><g
     inkscape:label="Capa 1"
     inkscape:groupmode="layer"
     id="layer1"
     transform="translate(-25.296145,-9.8474137)"><path
       style="fill:none;fill-opacity:1;stroke:#000000;stroke-width:1.4;stroke-dasharray:none;stroke-opacity:1"
       d="m 122.11306,160.66286 c 0,0 43.54792,-3.57387 41.68841,-10.16902 -1.85952,-6.59515 -31.22142,-8.42538 -31.22142,-8.42538 0,0 -81.559166,-1.7397 -77.475459,7.54814 4.083708,9.28784 55.887909,6.64522 55.887909,6.64522 0,0 33.29436,-1.11092 35.2411,-25.66019 1.37924,-17.39276 -13.99741,-27.93108 -18.48699,-31.411088 v 0"
       id="path4769"
       sodipodi:nodetypes="cscscsc" /><path
       style="fill:none;fill-opacity:1;stroke:#000000;stroke-width:1.4;stroke-dasharray:none;stroke-opacity:1"
       d="m 128.73788,99.951996 c 0,0 -13.18723,-9.901343 -13.06668,-5.166521 0.12054,4.734822 4.54197,5.977775 19.76889,-4.75833 0,0 -0.22105,-15.231967 -26.45547,-0.557944 -26.234427,14.674019 -1.63887,22.016279 -1.63887,22.016279 -0.0605,-0.26274 34.8201,5.18372 65.18377,-33.084958 34.01087,-42.86542 -39.30828,-115.774316 -136.552978,-22.755883 1.027261,-0.502115 -21.967019,32.34732 -1.392803,49.602661 18.388191,15.42195 33.972271,11.81904 34.074225,11.78379"
       id="path4771"
       sodipodi:nodetypes="cscscscsc" /><path
       style="fill:none;fill-opacity:1;stroke:#000000;stroke-width:1.4;stroke-dasharray:none;stroke-opacity:1"
       d="m 141.68207,90.92689 c 0,0 30.40726,-26.771618 6.9387,-41.098396 -23.46856,-14.326777 -74.051393,17.595318 -74.051393,17.595318 0,0 -20.869076,17.01301 -16.857498,25.493446 4.011581,8.480432 22.651968,7.962892 22.651968,7.962892"
       id="path4804" /><path
       style="fill:none;fill-opacity:1;stroke:#000000;stroke-width:1.4;stroke-dasharray:none;stroke-opacity:1"
       d="m 90.054474,147.24109 -0.500589,-9.31021 -40.578574,-1.02618 0.357947,49.97278 c 0,0 64.605002,8.40648 115.025292,1.82356 l 0.23363,-37.78436"
       id="path4806" /></g></svg>
